<svg width="300" height="124" viewBox="0 0 300 124" fill="none" xmlns="http://www.w3.org/2000/svg">
<path d="M223.618 42.3875H192.831C190.824 42.3875 189.066 43.9395 189.014 45.9525C188.961 48.0187 190.614 49.711 192.662 49.711H223.619V42.3875H223.618Z" fill="#18A0FB"/>
<path d="M223.618 57.9758H192.831C190.824 57.9758 189.066 59.5272 189.014 61.5408C188.961 63.6077 190.614 65.2994 192.662 65.2994H223.619V57.9758H223.618Z" fill="#18A0FB"/>
<path d="M223.618 73.5642H192.831C190.824 73.5642 189.066 75.1162 189.014 77.1292C188.961 79.1954 190.614 80.8877 192.662 80.8877H223.619V73.5642H223.618Z" fill="#18A0FB"/>
<path d="M62.5752 67.2215H70.8041V69.2032C70.8041 70.4145 70.6481 71.5794 70.3379 72.6987C70.0264 73.8185 69.4964 74.9284 68.7474 76.0288C67.9971 77.1299 67.0551 78.075 65.9222 78.8635C64.7886 79.6533 63.3249 80.2947 61.5334 80.7901C59.7413 81.2861 57.7114 81.5335 55.4442 81.5335C52.5916 81.5335 50.1135 81.1208 48.0106 80.2947C45.907 79.4692 44.2984 78.3506 43.1829 76.937C42.0668 75.5246 41.2441 74.029 40.7142 72.4513C40.1836 70.8736 39.9189 69.1857 39.9189 67.3875V55.8276C39.9189 54.03 40.1836 52.3421 40.7142 50.7638C41.2441 49.1861 42.0668 47.6904 43.1829 46.2775C44.2984 44.8651 45.907 43.7453 48.0106 42.9198C50.1135 42.0943 52.591 41.6809 55.4442 41.6809C58.26 41.6809 60.7013 42.0385 62.7675 42.7544C64.8336 43.4703 66.4334 44.4329 67.5676 45.6442C68.7006 46.8555 69.5239 48.1489 70.0364 49.5249C70.5482 50.9009 70.8041 52.3596 70.8041 53.901V55.4969H62.5752V54.3407C62.5752 52.8369 62.0172 51.5705 60.9017 50.5427C59.7856 49.5155 57.9667 49.0013 55.4436 49.0013C52.8463 49.0013 50.9999 49.6533 49.9032 50.9554C48.8058 52.2588 48.2571 53.8822 48.2571 55.8269V67.3863C48.2571 69.3316 48.8058 70.9556 49.9032 72.2571C51.0005 73.5605 52.8463 74.2112 55.4436 74.2112C58.0029 74.2112 59.8324 73.6883 60.9292 72.6429C62.0265 71.597 62.5752 70.3036 62.5752 68.7623V67.2215Z" fill="#F8F8F8"/>
<path d="M100.296 80.8727L97.7114 73.1114H83.849L81.3415 80.8727H72.9453L86.2572 42.3423H95.5866L109.042 80.8727H100.296ZM95.4923 66.4511L90.7196 52.0847L86.0019 66.4511H95.4923Z" fill="#F8F8F8"/>
<path d="M128.893 67.8271H121.449V80.8726H113.111V42.3416H128.143C131.105 42.3416 133.665 42.6904 135.823 43.3869C137.98 44.0846 139.645 45.0479 140.816 46.2767C141.986 47.5068 142.836 48.8459 143.366 50.2952C143.896 51.7451 144.161 53.3322 144.161 55.0564C144.161 60.5611 141.747 64.3228 136.92 66.3408L143.558 80.872H134.671L128.893 67.8271ZM128.197 49.3325H121.449V60.947H128.197C133.207 60.947 135.713 59.0204 135.713 55.1673C135.713 51.2779 133.208 49.3325 128.197 49.3325Z" fill="#F8F8F8"/>
<path d="M175.428 80.8726L158.751 57.412V80.8726H150.852V42.3416H157.839L174.441 65.7897V42.3416H182.34V80.872H175.428V80.8726Z" fill="#F8F8F8"/>
<path d="M260.08 49.6626H248.78V80.872H240.442V49.6626H229.195V42.3416H260.08V49.6626Z" fill="#F8F8F8"/>
</svg>
