<svg width="300" height="91" viewBox="0 0 300 91" fill="none" xmlns="http://www.w3.org/2000/svg">
<path d="M102.488 50.8565C99.6792 50.8565 97.6242 49.0379 97.6242 44.5251C97.6242 40.0086 99.7054 38.1115 102.405 38.1115C104.025 38.1115 105.24 38.7813 106.564 39.6082L107.592 35.8925C106.185 35.0094 104.483 34.478 102.405 34.478C97.0354 34.478 93.2254 38.0254 93.2217 44.6187V44.6486C93.2292 51.0249 96.7654 54.359 101.895 54.359C104.164 54.359 106.189 53.6892 107.704 52.7537L106.677 49.3597C105.323 50.2952 104.052 50.8565 102.488 50.8565Z" fill="#F8F8F8"/>
<path d="M115.587 40.0874C111.642 40.0874 108.646 42.6244 108.646 47.4366C108.646 52.0317 111.402 54.3592 115.726 54.3592C117.698 54.3592 119.749 53.8765 121.208 53.2104L120.398 50.2992C118.887 50.939 117.616 51.3132 116.344 51.3132C114.698 51.3132 113.427 50.6734 113.104 48.4806H121.478C121.561 47.9455 121.587 47.3056 121.587 46.8229C121.587 42.2502 119.209 40.0874 115.587 40.0874ZM113.048 45.9922C113.209 43.9903 114.154 43.0248 115.478 43.0248C116.693 43.0248 117.586 43.8518 117.586 45.9922H113.048Z" fill="#F8F8F8"/>
<path d="M132.687 40.0874C130.823 40.0874 129.282 40.862 128.067 42.0632V40.4055H123.717V54.0336H128.067V44.8958C128.903 44.1736 129.769 43.6946 130.688 43.6946C131.498 43.6946 131.986 44.0688 131.986 45.2176V54.0374H136.336V43.8817C136.336 40.9967 134.689 40.0874 132.687 40.0874Z" fill="#F8F8F8"/>
<path d="M143.925 35.8665H139.575V40.4092H137.603V43.5636H139.575V50.1644C139.575 53.2889 140.681 54.1982 143.764 54.1982C144.818 54.1982 145.736 54.0897 146.494 53.9587V50.7519C146.089 50.8604 145.601 50.9652 145.088 50.9652C144.221 50.9652 143.925 50.6434 143.925 49.5208V43.5599H146.49V40.4054H143.925V35.8665Z" fill="#F8F8F8"/>
<path d="M159.732 45.139C159.732 41.2923 157.572 40.0874 154.167 40.0874C151.924 40.0874 149.925 40.6225 148.279 41.2886L149.089 44.443C150.548 43.8293 151.898 43.3728 153.222 43.3728C154.707 43.3728 155.49 43.9341 155.49 45.4571V45.618C154.815 45.5394 154.084 45.5095 153.574 45.5095C149.415 45.5095 147.548 47.2196 147.548 50.0784C147.548 52.8587 149.303 54.3554 151.654 54.3554C153.139 54.3554 154.489 53.7418 155.543 52.593C155.625 53.5023 155.76 53.8241 155.895 54.0374H160.002C159.867 53.7418 159.732 53.1842 159.732 50.939V45.139ZM155.487 50.374C154.812 50.8829 154.028 51.2833 153.244 51.2833C152.378 51.2833 151.785 50.8006 151.785 49.6518C151.785 48.503 152.408 47.9156 154.215 47.9156C154.755 47.9156 155.078 47.9679 155.487 48.0503V50.374Z" fill="#F8F8F8"/>
<path d="M166.564 42.4634V40.4053H162.214V54.0335H166.564V45.3222C167.078 44.8694 168.48 43.8254 170.239 43.8254C170.561 43.8254 170.861 43.8254 171.105 43.8516V40.1658C170.888 40.1134 170.565 40.0835 170.295 40.0835C168.671 40.0872 167.348 41.0751 166.564 42.4634Z" fill="#F8F8F8"/>
<path d="M177.638 34.7961H173.235V54.0372H177.638V34.7961Z" fill="#F8F8F8"/>
<path d="M191.903 43.0248V40.4092H180.368V43.5337H186.525L179.963 51.3357V54.0373H191.955V50.8305H185.337L191.903 43.0248Z" fill="#F8F8F8"/>
<path d="M199.223 49.199L196.684 40.4092H192.281L196.901 54.0373H201.277L206.059 40.4092H201.817L199.223 49.199Z" fill="#F8F8F8"/>
<path d="M211.541 42.4634V40.4053H207.191V54.0335H211.541V45.3222C212.055 44.8694 213.458 43.8254 215.216 43.8254C215.539 43.8254 215.839 43.8254 216.083 43.8516V40.1658C215.865 40.1134 215.543 40.0835 215.273 40.0835C213.649 40.0872 212.325 41.0751 211.541 42.4634Z" fill="#F8F8F8"/>
<path d="M221.539 44.3081C221.539 43.6945 222.027 43.2641 223.024 43.2641C224.131 43.2641 225.484 43.7731 226.564 44.4391L227.374 41.1799C226.159 40.54 224.618 40.0835 222.942 40.0835C219.567 40.0835 217.351 41.8198 217.351 44.6262C217.351 49.356 223.617 47.9416 223.617 50.052C223.617 50.7742 222.994 51.3093 221.727 51.3093C220.403 51.3093 218.944 50.7742 217.621 50.0782L216.811 53.2327C218.217 53.9287 220.024 54.3553 221.836 54.3553C225.454 54.3553 227.806 52.5928 227.806 49.6254C227.806 44.7909 221.539 46.3138 221.539 44.3081Z" fill="#F8F8F8"/>
<path d="M238.774 40.0874C236.91 40.0874 235.369 40.862 234.154 42.0632V40.4055H229.804V54.0336H234.154V44.8958C234.99 44.1736 235.856 43.6946 236.775 43.6946C237.585 43.6946 238.072 44.0688 238.072 45.2176V54.0374H242.422V43.8817C242.419 40.9967 240.772 40.0874 238.774 40.0874Z" fill="#F8F8F8"/>
<path d="M251.01 40.0874C247.283 40.0874 244.204 42.3588 244.204 47.2757C244.204 52.1402 247.23 54.3554 250.905 54.3554C254.633 54.3554 257.712 52.0841 257.712 47.1672C257.708 42.3064 254.685 40.0874 251.01 40.0874ZM250.958 51.3357C249.634 51.3357 248.554 50.2655 248.554 47.2757C248.554 44.2821 249.634 43.2157 250.958 43.2157C252.282 43.2157 253.362 44.2859 253.362 47.2757C253.362 50.2692 252.282 51.3357 250.958 51.3357Z" fill="#F8F8F8"/>
<path d="M263.543 44.3081C263.543 43.6945 264.031 43.2641 265.028 43.2641C266.134 43.2641 267.488 43.7731 268.568 44.4391L269.378 41.1799C268.163 40.54 266.622 40.0835 264.946 40.0835C261.571 40.0835 259.354 41.8198 259.354 44.6262C259.354 49.356 265.621 47.9416 265.621 50.052C265.621 50.7742 264.998 51.3093 263.731 51.3093C262.407 51.3093 260.948 50.7742 259.624 50.0782L258.814 53.2327C260.221 53.9287 262.028 54.3553 263.839 54.3553C267.458 54.3553 269.809 52.5928 269.809 49.6254C269.813 44.7909 263.543 46.3138 263.543 44.3081Z" fill="#F8F8F8"/>
<path d="M276.915 35.8665H272.565V40.4092H270.593V43.5636H272.565V50.1644C272.565 53.2889 273.672 54.1982 276.754 54.1982C277.808 54.1982 278.727 54.0897 279.484 53.9587V50.7519C279.079 50.8604 278.592 50.9652 278.078 50.9652C277.215 50.9652 276.915 50.6434 276.915 49.5208V43.5599H279.48V40.4054H276.915V35.8665Z" fill="#F8F8F8"/>
<path d="M285.859 40.4092H281.509V54.0373H285.859V40.4092Z" fill="#F8F8F8"/>
<path d="M283.695 38.8599C285.18 38.8599 286.125 37.9245 286.125 36.6148C286.125 35.3051 285.18 34.3696 283.695 34.3696C282.21 34.3696 281.235 35.3051 281.235 36.6148C281.239 37.9245 282.21 38.8599 283.695 38.8599Z" fill="#F8F8F8"/>
<path d="M27.1084 73.3871L19.4922 65.7722L67.7172 17.5386L75.3334 25.1534L27.1084 73.3871Z" fill="#F8F8F8"/>
<path d="M67.7173 73.3871L19.4961 25.1534L27.1086 17.5386L75.3336 65.7722L67.7173 73.3871Z" fill="#F8F8F8"/>
<path d="M52.8003 11.3567H42.0303V79.576H52.8003V11.3567Z" fill="#18A0FB"/>
<path d="M81.5138 40.0798H13.3125V50.8491H81.5138V40.0798Z" fill="#18A0FB"/>
</svg>
