<svg width="410" height="123" viewBox="0 0 410 123" fill="none" xmlns="http://www.w3.org/2000/svg">
<g clip-path="url(#clip0_225:494)">
<path d="M91.5989 39.7846C96.9325 39.7846 101.256 35.3776 101.256 29.9414C101.256 24.5051 96.9325 20.0981 91.5989 20.0981C86.2652 20.0981 81.9414 24.5051 81.9414 29.9414C81.9414 35.3776 86.2652 39.7846 91.5989 39.7846Z" fill="#111111"/>
<path d="M93.7036 20.3407C96.0283 20.9098 98.0671 22.3025 99.441 24.2599C100.815 26.2173 101.43 28.6064 101.173 30.9829C100.916 33.3595 99.8031 35.5619 98.042 37.1808C96.281 38.7997 93.9912 39.725 91.5984 39.7846C91.0203 39.7807 90.4438 39.7241 89.876 39.6155C91.2266 40.1109 92.6687 40.3081 94.103 40.1936C95.5373 40.079 96.9297 39.6555 98.1844 38.9521C99.4391 38.2487 100.526 37.2821 101.371 36.1189C102.216 34.9557 102.798 33.6235 103.078 32.2139C103.358 30.8044 103.329 29.351 102.993 27.9539C102.656 26.5567 102.021 25.2489 101.13 24.1206C100.239 22.9922 99.1136 22.07 97.8316 21.4175C96.5497 20.765 95.1413 20.3976 93.7036 20.3407Z" fill="#CCCCCC"/>
<path d="M53.7492 28.3682C59.0829 28.3682 63.4067 23.9613 63.4067 18.525C63.4067 13.0887 59.0829 8.68175 53.7492 8.68175C48.4156 8.68175 44.0918 13.0887 44.0918 18.525C44.0918 23.9613 48.4156 28.3682 53.7492 28.3682Z" fill="#18A0FB"/>
<path d="M44.0919 18.525C44.0664 15.9409 45.0693 13.4526 46.8803 11.6068C48.6912 9.761 51.1619 8.70889 53.7493 8.68174C54.0812 8.68167 54.4129 8.69885 54.743 8.7332C53.374 8.36312 51.9417 8.28932 50.5418 8.51673C49.142 8.74415 47.8069 9.26753 46.6259 10.0519C45.445 10.8362 44.4454 11.8634 43.694 13.0647C42.9427 14.266 42.4569 15.6137 42.2692 17.0176C42.0815 18.4216 42.1963 19.8493 42.6057 21.2054C43.0152 22.5615 43.71 23.8146 44.6435 24.8809C45.5771 25.9471 46.7279 26.802 48.019 27.3882C49.3101 27.9744 50.7117 28.2784 52.1299 28.28H52.4317C50.0977 27.931 47.9685 26.7517 46.4361 24.9592C44.9037 23.1668 44.0712 20.8818 44.0919 18.525Z" fill="#CDEAFE"/>
<path d="M87.3366 9.71826L81.1093 13.4968L80.6971 20.7671L75.1691 16.0182L68.1248 17.8707L70.9366 11.1591L66.9986 5.03556L74.2564 5.63836L78.8716 0L80.5425 7.08654L87.3366 9.71826ZM35.9799 16.3564L30.8567 19.4659L30.5181 25.4498L25.9691 21.539L20.1688 23.068L22.4874 17.5399L19.2413 12.5044L25.2183 12.9969L29.0165 8.3583L30.393 14.1878L35.9799 16.3564ZM12.5355 33.1538L8.70054 35.4842L8.44291 39.961L5.04219 37.0353L0.691921 38.1747L2.42908 34.036L0 30.2648L4.4754 30.6324L7.3167 27.1626L8.35458 31.5292L12.5355 33.1538ZM134.991 42.953L127.895 47.2534L127.424 55.5382L121.13 50.1277L113.107 52.2375L116.309 44.5923L111.819 37.616L120.092 38.2997L125.348 31.8747L127.255 39.9463L134.991 42.953ZM145.848 83.73L137.582 88.7435L137.03 98.3882L129.698 92.0883L120.35 94.5509L124.082 85.6413L118.848 77.5109L128.491 78.3122L134.608 70.8287L136.831 80.2308L145.848 83.73Z" fill="#18A0FB"/>
<path d="M66.7406 44.2468C76.7293 41.3578 99.0254 39.3656 105.753 61.5735C113.379 86.641 77.3624 123 77.3624 123C77.3624 123 87.7485 106.46 89.1913 93.8599C76.8397 103.049 65.6365 108.82 50.1787 110.033C68.3159 100.844 77.7819 94.1539 84.8778 75.379C73.0489 74.4601 58.3272 67.5059 56.3545 66.19C73.439 69.3437 86.5929 67.8147 88.0062 59.2358C89.4195 50.657 80.9324 45.1657 66.7406 44.2468Z" fill="#111111"/>
<path d="M66.2181 44.1218C66.2181 44.1218 45.8433 20.4951 26.2634 36.381C6.68349 52.2669 14.3977 104.497 14.3977 104.497C14.3977 104.497 15.7153 81.135 20.7059 73.1296C30.2751 100.167 44.7539 108.57 44.7539 108.57C44.7539 108.57 27.8239 86.2588 34.6327 60.662C45.144 65.5211 51.9822 66.043 55.3977 65.9107C39.6234 56.8541 39.2038 48.7163 41.2059 44.9084C42.9431 41.6224 48.081 33.8816 66.2181 44.1218Z" fill="#18A0FB"/>
<path d="M26.2639 36.3736C45.8438 20.4877 66.2187 44.1218 66.2187 44.1218C63.0608 40.0566 40.5734 16.6725 19.168 38.3438C-0.154235 57.8979 13.6474 99.3586 14.435 104.504C14.3982 104.497 6.67664 52.2522 26.2639 36.3736Z" fill="#CDEAFE"/>
<path d="M20.7432 73.1222C19.8749 74.6007 19.1809 76.1745 18.6748 77.8123C21.0671 83.3992 28.8843 99.0204 44.6881 108.496C43.4147 107.717 29.856 98.8734 20.7432 73.1222Z" fill="#CDEAFE"/>
<path d="M110.376 63.8083C105.827 46.1654 91.1056 40.6226 74.8896 42.7177C85.8426 41.6665 100.52 44.2909 105.805 61.5735C113.431 86.641 77.4144 123 77.4144 123C88.4263 115.428 116.324 86.8836 110.376 63.8083Z" fill="#C4C4C4"/>
<path d="M89.2138 93.8599C76.8622 103.049 65.659 108.82 50.2012 110.032C65.1143 110.525 83.7814 100.991 88.4114 98.3294C88.772 96.8578 89.04 95.365 89.2138 93.8599Z" fill="#C4C4C4"/>
<path d="M182.962 65.4402C182.962 65.4402 181.578 69.6745 177.942 70.542C174.305 71.4094 167.29 71.4902 167.033 63.0217L181.836 57.7435C181.836 57.7435 178.98 45.9816 167.725 48.6648C160.106 50.4806 157.508 60.8751 159.068 66.8223C160.975 74.0852 168.939 79.0105 176.3 75.901C178.363 75.0678 180.115 73.6118 181.309 71.7363C182.503 69.8609 183.081 67.6597 182.962 65.4402ZM171.103 52.039C175.954 51.6053 177.338 56.1925 177.338 56.1925L166.687 57.8318C166.687 57.8318 166.238 52.4507 171.081 52.017L171.103 52.039Z" fill="#18A0FB"/>
<path d="M176.278 75.8863C174.088 76.7878 171.685 77.0392 169.355 76.6102C167.026 76.1812 164.87 75.0901 163.146 73.4678C161.126 71.7221 159.694 69.3962 159.046 66.8076C157.486 60.8605 160.084 50.4659 167.703 48.6501C168.1 48.5546 168.49 48.4811 168.866 48.4223L169.182 48.3782C169.455 48.3414 169.727 48.312 169.985 48.2899H171.324C171.656 48.2899 171.979 48.2899 172.289 48.3634L172.377 48.3267C165.701 47.2681 154.542 51.6494 154.998 64.6243C155.469 77.9152 172.362 81.7893 179.208 74.1808C178.32 74.8888 177.333 75.4633 176.278 75.8863Z" fill="#CDEAFE"/>
<path d="M171.081 52.017H170.838C173.848 52.2596 175.328 55.1412 175.821 56.3689L177.293 56.141C177.293 56.141 175.932 51.5906 171.081 52.017Z" fill="#CDEAFE"/>
<path d="M217.292 39.8434H202.335V77.4447H196.122V39.8434H181.165V34.2712H217.292V39.8434ZM246.265 66.2415L253.684 49.025H259.705L247.192 78.0181H245.418L236.99 58.1699L228.621 78.0181H226.847L214.171 49.025H220.192L227.671 66.2415L234.899 49.025H239.08L246.265 66.2415ZM267.133 43.7689C266.469 43.7689 265.82 43.5723 265.268 43.204C264.716 42.8357 264.286 42.3121 264.032 41.6996C263.777 41.0871 263.711 40.4131 263.84 39.7628C263.97 39.1126 264.29 38.5153 264.759 38.0465C265.229 37.5777 265.827 37.2584 266.478 37.1291C267.129 36.9997 267.804 37.0661 268.417 37.3198C269.03 37.5735 269.555 38.0032 269.923 38.5544C270.292 39.1057 270.489 39.7538 270.489 40.4168C270.483 41.304 270.128 42.1533 269.5 42.7807C268.871 43.4081 268.021 43.7631 267.133 43.7689ZM269.922 77.4447H264.284V49.025H269.922V77.4447ZM283.621 52.7594H283.746C284.748 51.4513 286.032 50.3849 287.502 49.6392C288.972 48.8935 290.592 48.4877 292.24 48.4516C297.629 48.4516 301.935 52.1272 301.935 59.9121V77.4447H296.318V59.846C296.318 55.6705 294.162 52.9432 290.739 52.9432C288.266 52.9432 286.322 54.0826 283.643 57.0599V77.4447H278.005V49.025H283.643V52.7594H283.621ZM315.508 52.7594H315.633C316.635 51.4513 317.919 50.3849 319.389 49.6392C320.86 48.8935 322.479 48.4877 324.128 48.4516C329.516 48.4516 333.822 52.1272 333.822 59.9121V77.4447H328.184V59.846C328.184 55.6705 326.027 52.9432 322.604 52.9432C320.131 52.9432 318.188 54.0826 315.508 57.0599V77.4447H309.87V49.025H315.508V52.7594ZM344.628 43.7689C343.964 43.7689 343.315 43.5723 342.763 43.204C342.211 42.8357 341.781 42.3121 341.527 41.6996C341.273 41.0871 341.206 40.4131 341.336 39.7628C341.465 39.1126 341.785 38.5153 342.254 38.0465C342.724 37.5777 343.322 37.2584 343.973 37.1291C344.624 36.9997 345.299 37.0661 345.912 37.3198C346.526 37.5735 347.05 38.0032 347.419 38.5544C347.787 39.1057 347.984 39.7538 347.984 40.4168C347.978 41.304 347.623 42.1533 346.995 42.7807C346.367 43.4081 345.516 43.7631 344.628 43.7689ZM347.417 77.4447H341.779V49.025H347.417V77.4447ZM361.094 52.7594H361.219C362.221 51.4513 363.505 50.3849 364.975 49.6392C366.445 48.8935 368.065 48.4877 369.714 48.4516C375.102 48.4516 379.408 52.1272 379.408 59.9121V77.4447H373.769V59.846C373.769 55.6705 371.613 52.9432 368.19 52.9432C365.717 52.9432 363.773 54.0826 361.094 57.0599V77.4447H355.456V49.025H361.094V52.7594ZM410.007 53.3916H404.177C406.385 55.597 407.121 57.1922 407.121 59.596C407.01 61.9736 406.067 64.237 404.457 65.9916C400.651 70.0421 392.922 68.0205 392.922 71.3726C392.922 72.9531 395.867 73.9014 401.608 75.0482C407.696 76.2538 409.845 79.3486 409.845 82.9581C409.845 88.5891 404.84 92.0074 396.411 92.0074C388.741 92.0074 383.294 88.398 383.294 83.3992C383.294 79.2237 385.503 76.7831 390.456 75.5481C388.491 74.3425 387.608 73.2031 387.608 71.9387C387.608 70.1009 389.382 68.5204 392.105 67.8881V67.7632C390.212 67.0301 388.564 65.7792 387.35 64.1538C386.301 62.5834 385.769 60.7256 385.826 58.8388C385.826 52.7594 390.582 49.025 398.252 49.025H409.977V53.3916H410.007ZM395.109 78.8341C391.303 78.8341 388.646 80.6057 388.646 83.1419C388.646 85.9868 391.435 87.5085 396.566 87.5085C401.512 87.5085 404.427 85.9868 404.427 83.3918C404.427 79.7897 398.598 78.8414 395.109 78.8414V78.8341ZM396.581 53.8989C393.474 53.8989 390.942 56.2439 390.942 59.0447C390.942 62.1469 393.224 64.2346 396.647 64.2346C397.361 64.2692 398.074 64.1564 398.742 63.9032C399.411 63.65 400.019 63.2618 400.531 62.763C401.042 62.2642 401.444 61.6654 401.713 61.0042C401.982 60.3429 402.112 59.6333 402.094 58.9197C402.079 56.1777 399.547 53.8989 396.566 53.8989H396.581Z" fill="#111111"/>
</g>
<defs>
<clipPath id="clip0_225:494">
<rect width="410" height="123" fill="white"/>
</clipPath>
</defs>
</svg>
