<svg width="200" height="86" viewBox="0 0 200 86" fill="none" xmlns="http://www.w3.org/2000/svg">
<path d="M76.7578 10.7407H4.00977V74.9668H76.7578V10.7407Z" fill="#F8F8F8"/>
<path d="M100.414 17.759H84.5322V48.469H100.414V17.759Z" fill="#F8F8F8"/>
<path d="M117.477 48.4759C113.091 48.4759 109.811 47.7788 107.641 46.3886C105.472 44.9974 104.384 42.8963 104.384 40.0863V26.0756C104.384 23.4115 105.479 21.3617 107.673 19.9222C109.865 18.4856 112.989 17.7659 117.038 17.7659H147.957V26.0756H119.45V40.0863H147.894V48.4759H117.477Z" fill="#F8F8F8"/>
<path d="M166.219 48.4759V26.0756H151.527V17.7659H195.978V26.0756H181.944V48.4759H166.219Z" fill="#F8F8F8"/>
<path d="M88.2472 51.0566H89.6108L91.2682 51.9026L92.9244 51.0566H94.288L92.3995 52.6736H90.1357L88.2472 51.0566ZM98.0002 61.8402H84.5439V59.5932L92.3838 55.462H84.7718V53.0956H98.0002V55.462L90.5166 59.4512H98.0002V61.8402Z" fill="#F8F8F8"/>
<path d="M113.616 60.0406C113.616 60.5987 113.328 61.0404 112.754 61.3599C112.179 61.6803 111.383 61.84 110.377 61.84H102.822C101.808 61.84 101.011 61.6783 100.433 61.3569C99.8536 61.0345 99.5654 60.5957 99.5654 60.0406V53.0964H104.107V59.451H109.082V53.0964H113.616V60.0406Z" fill="#F8F8F8"/>
<path d="M119.852 56.9826H124.321V55.4641H119.852V56.9826ZM115.367 61.8433V53.0977H125.921C126.968 53.0977 127.728 53.2359 128.201 53.5218C128.675 53.8077 128.912 54.2612 128.912 54.8823V57.2979C128.912 57.8698 128.675 58.2938 128.196 58.5698C127.722 58.8558 126.993 58.9937 126.016 58.9937H119.913V61.8433H115.367Z" fill="#F8F8F8"/>
<path d="M134.744 56.5486H139.714V55.4641H134.744V56.5486ZM130.219 54.9021C130.219 54.3401 130.507 53.8963 131.087 53.5808C131.664 53.2554 132.46 53.0977 133.476 53.0977H141.008C142.027 53.0977 142.824 53.2554 143.4 53.5808C143.978 53.8963 144.269 54.3401 144.269 54.9021V61.8433H139.714V58.3135H134.744V61.8433H130.219V54.9021Z" fill="#F8F8F8"/>
<path d="M145.983 61.8403V53.0957H151.565L155.117 56.5367C155.225 56.6432 155.35 56.7813 155.495 56.9548C155.636 57.1244 155.829 57.3659 156.069 57.6726C155.988 57.43 155.927 57.1757 155.889 56.9104C155.85 56.6462 155.831 56.3563 155.831 56.0447V53.0957H160.167V61.8403H155.831L151.039 57.2614C150.934 57.1638 150.795 57.013 150.626 56.8138C150.457 56.6137 150.275 56.3859 150.079 56.1315C150.16 56.375 150.223 56.6265 150.262 56.8878C150.3 57.149 150.315 57.435 150.315 57.7416V61.8403H145.983Z" fill="#F8F8F8"/>
<path d="M166.52 53.0977H161.978V61.8424H166.52V53.0977Z" fill="#F8F8F8"/>
<path d="M180.198 59.4858C180.198 60.2667 179.905 60.8543 179.316 61.2497C178.729 61.6431 177.847 61.8403 176.671 61.8403H171.692C170.516 61.8403 169.637 61.6431 169.049 61.2497C168.461 60.8543 168.167 60.2667 168.167 59.4858V57.7781H172.472V59.4513H175.871V53.0967H180.198V59.4858Z" fill="#F8F8F8"/>
<path d="M186.467 56.5486H191.435V55.4641H186.467V56.5486ZM181.941 54.9021C181.941 54.3401 182.23 53.8963 182.809 53.5808C183.387 53.2554 184.183 53.0977 185.198 53.0977H192.731C193.748 53.0977 194.547 53.2554 195.123 53.5808C195.7 53.8963 195.991 54.3401 195.991 54.9021V61.8433H191.435V58.3135H186.467V61.8433H181.941V54.9021Z" fill="#F8F8F8"/>
<path d="M84.5608 66.5863L85.8921 66.5853V66.6553C85.8921 66.8032 85.9334 66.9038 86.0149 66.956C86.0964 67.0073 86.2662 67.0339 86.5253 67.0339H88.2195C88.3859 67.0339 88.5042 67.0093 88.5757 66.958C88.6472 66.9087 88.6829 66.8249 88.6829 66.7086C88.6829 66.5902 88.6405 66.5055 88.5601 66.4542C88.4763 66.4029 88.301 66.3694 88.0296 66.3516L85.9099 66.3102C85.3794 66.2954 85.0221 66.2057 84.8345 66.0401C84.6479 65.8744 84.5553 65.5727 84.5553 65.136C84.5553 64.9102 84.5787 64.7228 84.629 64.5769C84.677 64.43 84.7563 64.3087 84.8657 64.2121C84.9942 64.1027 85.1628 64.0248 85.3705 63.9794C85.5782 63.9341 85.9166 63.9104 86.3857 63.9104H88.445C88.9554 63.9104 89.324 63.9932 89.5473 64.1589C89.7729 64.3255 89.8857 64.5947 89.8857 64.9664C89.8857 64.991 89.8835 65.0176 89.8835 65.0462C89.8824 65.0738 89.8801 65.1202 89.8734 65.1833H88.5735V65.1675C88.5735 65.0374 88.5366 64.9388 88.4607 64.8727C88.3881 64.8076 88.2775 64.7761 88.129 64.7761H86.5733C86.3142 64.7761 86.1422 64.7997 86.0585 64.8451C85.9758 64.8904 85.9334 64.9703 85.9334 65.0847C85.9334 65.1971 85.9713 65.2799 86.0473 65.3302C86.1221 65.3805 86.2606 65.413 86.4627 65.4268L88.6829 65.4584C89.1899 65.4712 89.5451 65.5708 89.7528 65.762C89.9583 65.9513 90.0633 66.2787 90.0633 66.7381C90.0633 67.0113 90.0242 67.2232 89.9494 67.3721C89.8712 67.523 89.745 67.6492 89.5652 67.7557C89.4468 67.8217 89.2838 67.872 89.0805 67.8996C88.8761 67.9292 88.5824 67.944 88.196 67.944H86.398C85.6586 67.944 85.1661 67.87 84.9171 67.7231C84.668 67.5752 84.543 67.3001 84.543 66.8979C84.543 66.8752 84.543 66.8387 84.5474 66.7835C84.5486 66.7312 84.5553 66.6642 84.5608 66.5863Z" fill="#18A0FB"/>
<path d="M94.1951 64.9403H92.2061V65.9361H94.1951C94.3749 65.9361 94.5 65.8977 94.5726 65.8198C94.6441 65.7409 94.682 65.6009 94.682 65.3997C94.682 65.24 94.6418 65.1237 94.5659 65.0497C94.4877 64.9768 94.3649 64.9403 94.1951 64.9403ZM94.242 63.9583C94.5436 63.9583 94.7826 63.9721 94.9624 63.9967C95.1411 64.0233 95.2929 64.0638 95.418 64.1219C95.6414 64.2264 95.8033 64.3812 95.9049 64.5873C96.0055 64.7924 96.0557 65.0754 96.0557 65.4372C96.0557 65.9765 95.9541 66.3571 95.7531 66.5809C95.5509 66.8038 95.2103 66.9142 94.7301 66.9142H92.2061V67.8962H90.8525V63.9583H94.242Z" fill="#18A0FB"/>
<path d="M98.2087 66.9445H101.149V67.896H96.8574V63.958H98.2087V66.9445Z" fill="#18A0FB"/>
<path d="M101.735 63.9636H103.084V67.9015H101.735V63.9636Z" fill="#18A0FB"/>
<path d="M106.931 67.8962H105.583V64.9245H103.735V63.9583H108.781V64.9245H106.931V67.8962Z" fill="#18A0FB"/>
<path d="M109.321 66.5863L110.652 66.5853V66.6553C110.652 66.8032 110.694 66.9038 110.775 66.956C110.856 67.0073 111.026 67.0339 111.286 67.0339H112.979C113.146 67.0339 113.264 67.0093 113.335 66.958C113.407 66.9087 113.443 66.8249 113.443 66.7086C113.443 66.5902 113.401 66.5055 113.32 66.4542C113.236 66.4029 113.061 66.3694 112.789 66.3516L110.67 66.3102C110.14 66.2954 109.782 66.2057 109.594 66.0401C109.408 65.8744 109.315 65.5727 109.315 65.136C109.315 64.9102 109.338 64.7228 109.389 64.5769C109.437 64.43 109.517 64.3087 109.625 64.2121C109.754 64.1027 109.923 64.0248 110.13 63.9794C110.338 63.9341 110.676 63.9104 111.145 63.9104H113.205C113.716 63.9104 114.084 63.9932 114.307 64.1589C114.533 64.3255 114.645 64.5947 114.645 64.9664C114.645 64.991 114.643 65.0176 114.643 65.0462C114.642 65.0738 114.64 65.1202 114.633 65.1833H113.333V65.1675C113.333 65.0374 113.296 64.9388 113.22 64.8727C113.148 64.8076 113.037 64.7761 112.889 64.7761H111.333C111.074 64.7761 110.902 64.7997 110.818 64.8451C110.736 64.8904 110.694 64.9703 110.694 65.0847C110.694 65.1971 110.732 65.2799 110.807 65.3302C110.882 65.3805 111.02 65.413 111.223 65.4268L113.443 65.4584C113.95 65.4712 114.305 65.5708 114.513 65.762C114.718 65.9513 114.824 66.2787 114.824 66.7381C114.824 67.0113 114.784 67.2232 114.709 67.3721C114.632 67.523 114.505 67.6492 114.325 67.7557C114.207 67.8217 114.044 67.872 113.84 67.8996C113.636 67.9292 113.342 67.944 112.956 67.944H111.158C110.418 67.944 109.926 67.87 109.677 67.7231C109.428 67.5752 109.303 67.3001 109.303 66.8979C109.303 66.8752 109.303 66.8387 109.307 66.7835C109.309 66.7312 109.315 66.6642 109.321 66.5863Z" fill="#18A0FB"/>
<path d="M116.972 65.4212H117.538L119.307 63.958H121.1L118.712 65.9023L121.415 67.896H119.538L117.538 66.4072H116.972V67.896H115.624V63.958H116.972V65.4212Z" fill="#18A0FB"/>
<path d="M124.086 66.9605H124.944C125.421 66.9605 125.737 66.9072 125.895 66.7998C126.051 66.6943 126.128 66.4951 126.128 66.2052V65.6482C126.128 65.3593 126.051 65.1621 125.895 65.0546C125.737 64.9491 125.421 64.8939 124.944 64.8939H124.08C123.593 64.8939 123.275 64.9491 123.124 65.0566C122.971 65.1641 122.897 65.3682 122.897 65.6699V66.2161C122.897 66.5 122.976 66.6953 123.136 66.8018C123.295 66.9072 123.611 66.9605 124.086 66.9605ZM123.722 67.9445C123.206 67.9445 122.828 67.9228 122.588 67.8824C122.348 67.84 122.152 67.769 122.002 67.6694C121.832 67.556 121.709 67.4081 121.634 67.2267C121.559 67.0433 121.521 66.8018 121.521 66.5V65.4263C121.521 65.097 121.559 64.8357 121.634 64.6435C121.709 64.4522 121.832 64.2984 122.002 64.186C122.151 64.0864 122.348 64.0164 122.596 63.974C122.842 63.9316 123.216 63.9109 123.716 63.9109H125.303C125.806 63.9109 126.181 63.9316 126.431 63.974C126.678 64.0164 126.877 64.0864 127.022 64.186C127.186 64.2964 127.305 64.4482 127.382 64.6405C127.458 64.8328 127.497 65.0793 127.497 65.379V66.4754C127.497 66.7781 127.458 67.0256 127.382 67.2159C127.305 67.4042 127.186 67.556 127.022 67.6694C126.874 67.769 126.678 67.84 126.435 67.8824C126.191 67.9228 125.813 67.9445 125.303 67.9445H123.722Z" fill="#18A0FB"/>
<path d="M128.332 65.9824H130.332V66.991H128.332V65.9824Z" fill="#18A0FB"/>
<path d="M134.775 64.9297H132.658V66.9391H134.944C135.231 66.9391 135.439 66.8858 135.572 66.7823C135.705 66.6778 135.772 66.5161 135.772 66.2943V65.6011C135.772 65.3704 135.691 65.2008 135.529 65.0914C135.369 64.9839 135.118 64.9297 134.775 64.9297ZM135.187 63.9585C135.862 63.9585 136.352 64.064 136.659 64.275C136.965 64.485 137.12 64.8202 137.12 65.2797V66.6344C137.12 67.0712 136.997 67.3926 136.752 67.5928C136.506 67.7959 136.116 67.8965 135.582 67.8965H131.31V63.9585H135.187Z" fill="#18A0FB"/>
<path d="M139.78 66.294H141.477L140.618 64.8989L139.78 66.294ZM138.838 67.8962H137.365L139.78 63.9583H141.502L143.869 67.8962H142.387L141.961 67.2405H139.269L138.838 67.8962Z" fill="#18A0FB"/>
<path d="M145.759 66.9445H148.702V67.896H144.41V63.958H145.759V66.9445Z" fill="#18A0FB"/>
<path d="M150.55 67.8962H149.237V63.9583H151.23L152.805 66.4173L154.408 63.9583H156.373V67.8962H155.067V65.0901L153.242 67.8962H152.36L150.55 65.0901V67.8962Z" fill="#18A0FB"/>
<path d="M159.256 66.294H160.954L160.095 64.8989L159.256 66.294ZM158.315 67.8962H156.842L159.256 63.9583H160.978L163.346 67.8962H161.864L161.437 67.2405H158.746L158.315 67.8962Z" fill="#18A0FB"/>
<path d="M166.019 67.8962H164.671V64.9245H162.824V63.9583H167.87V64.9245H166.019V67.8962Z" fill="#18A0FB"/>
<path d="M168.52 63.9636H169.871V67.9015H168.52V63.9636Z" fill="#18A0FB"/>
<path d="M176.806 67.8962H174.829L172.179 65.032V67.8962H170.832V63.9583H172.829L175.462 66.8462V63.9583H176.806V67.8962Z" fill="#18A0FB"/>
<path d="M177.624 66.5863L178.958 66.5853V66.6553C178.958 66.8032 178.998 66.9038 179.079 66.956C179.16 67.0073 179.33 67.0339 179.59 67.0339H181.285C181.452 67.0339 181.57 67.0093 181.641 66.958C181.713 66.9087 181.749 66.8249 181.749 66.7086C181.749 66.5902 181.706 66.5055 181.626 66.4542C181.542 66.4029 181.367 66.3694 181.095 66.3516L178.976 66.3102C178.445 66.2954 178.088 66.2057 177.9 66.0401C177.714 65.8744 177.619 65.5727 177.619 65.136C177.619 64.9102 177.644 64.7228 177.694 64.5769C177.743 64.43 177.822 64.3087 177.931 64.2121C178.06 64.1027 178.229 64.0248 178.436 63.9794C178.644 63.9341 178.982 63.9104 179.451 63.9104H181.511C182.021 63.9104 182.387 63.9932 182.613 64.1589C182.836 64.3255 182.949 64.5947 182.949 64.9664V65.0462C182.947 65.0738 182.944 65.1202 182.937 65.1833H181.637V65.1675C181.637 65.0374 181.602 64.9388 181.526 64.8727C181.454 64.8076 181.341 64.7761 181.192 64.7761H179.637C179.378 64.7761 179.207 64.7997 179.124 64.8451C179.042 64.8904 178.999 64.9703 178.999 65.0847C178.999 65.1971 179.037 65.2799 179.113 65.3302C179.188 65.3805 179.326 65.413 179.528 65.4268L181.749 65.4584C182.255 65.4712 182.611 65.5708 182.819 65.762C183.024 65.9513 183.128 66.2787 183.128 66.7381C183.128 67.0113 183.09 67.2232 183.015 67.3721C182.937 67.523 182.808 67.6492 182.629 67.7557C182.51 67.8217 182.349 67.872 182.146 67.8996C181.942 67.9292 181.647 67.944 181.262 67.944H179.463C178.724 67.944 178.23 67.87 177.981 67.7231C177.732 67.5752 177.606 67.3001 177.606 66.8979C177.606 66.8752 177.609 66.8387 177.613 66.7835C177.614 66.7312 177.619 66.6642 177.624 66.5863Z" fill="#18A0FB"/>
<path d="M185.277 65.4212H185.845L187.614 63.958H189.407L187.017 65.9023L189.72 67.896H187.845L185.845 66.4072H185.277V67.896H183.929V63.958H185.277V65.4212Z" fill="#18A0FB"/>
<path d="M191.899 66.294H193.597L192.737 64.8989L191.899 66.294ZM190.957 67.8962H189.485L191.899 63.9583H193.621L195.99 67.8962H194.506L194.08 67.2405H191.388L190.957 67.8962Z" fill="#18A0FB"/>
<path d="M20.1244 42.857V35.7136H12.0332V57.1417H20.1244V50.0063H28.2145V42.8639H20.1244V42.857Z" fill="#18A0FB"/>
<path d="M44.3961 35.7211V35.7142V28.5718H36.3049V35.7211H28.2148V42.8634H36.3049V49.9989H44.3961V42.8634H52.4862V35.7211H44.3961Z" fill="#18A0FB"/>
<path d="M60.5764 35.7139V42.8631H52.4863V50.0065H60.5764V57.142H68.6676V49.9996V42.8572V35.7139H60.5764Z" fill="#18A0FB"/>
</svg>
