<svg width="25" height="28" viewBox="0 0 25 28" fill="none" xmlns="http://www.w3.org/2000/svg">
    <g clip-path="url(#clip0_239:1344)">
        <path
            d="M12.7108 7.64936C9.34456 7.64936 6.62937 10.3473 6.62937 13.6921C6.62937 17.0369 9.34456 19.7348 12.7108 19.7348C16.077 19.7348 18.7921 17.0369 18.7921 13.6921C18.7921 10.3473 16.077 7.64936 12.7108 7.64936ZM12.7108 17.6207C10.5354 17.6207 8.75706 15.8589 8.75706 13.6921C8.75706 11.5253 10.5301 9.76353 12.7108 9.76353C14.8914 9.76353 16.6644 11.5253 16.6644 13.6921C16.6644 15.8589 14.8861 17.6207 12.7108 17.6207ZM20.4594 7.40218C20.4594 8.18579 19.8242 8.81163 19.0409 8.81163C18.2523 8.81163 17.6224 8.18053 17.6224 7.40218C17.6224 6.62383 18.2576 5.99274 19.0409 5.99274C19.8242 5.99274 20.4594 6.62383 20.4594 7.40218ZM24.4872 8.83266C24.3972 6.94464 23.9632 5.27224 22.5712 3.89435C21.1845 2.51646 19.5014 2.08521 17.6013 1.99055C15.6429 1.8801 9.77327 1.8801 7.81495 1.99055C5.92014 2.07995 4.23704 2.5112 2.84504 3.88909C1.45305 5.26698 1.02433 6.93938 0.929064 8.8274C0.817916 10.7733 0.817916 16.6056 0.929064 18.5515C1.01904 20.4395 1.45305 22.1119 2.84504 23.4898C4.23704 24.8677 5.91485 25.299 7.81495 25.3936C9.77327 25.5041 15.6429 25.5041 17.6013 25.3936C19.5014 25.3042 21.1845 24.873 22.5712 23.4898C23.9579 22.1119 24.3919 20.4395 24.4872 18.5515C24.5983 16.6056 24.5983 10.7785 24.4872 8.83266ZM21.9572 20.6394C21.5444 21.6702 20.7452 22.4643 19.7025 22.8798C18.1411 23.4951 14.4362 23.3531 12.7108 23.3531C10.9853 23.3531 7.27509 23.4898 5.71901 22.8798C4.68163 22.4696 3.88243 21.6754 3.4643 20.6394C2.84504 19.088 2.98795 15.4066 2.98795 13.6921C2.98795 11.9776 2.85034 8.29097 3.4643 6.74479C3.87713 5.714 4.67634 4.91988 5.71901 4.50441C7.28038 3.88909 10.9853 4.03109 12.7108 4.03109C14.4362 4.03109 18.1464 3.89435 19.7025 4.50441C20.7399 4.91462 21.5391 5.70875 21.9572 6.74479C22.5765 8.29623 22.4336 11.9776 22.4336 13.6921C22.4336 15.4066 22.5765 19.0932 21.9572 20.6394Z"
            fill="#F8F8F8" />
    </g>
    <defs>
        <clipPath id="clip0_239:1344">
            <rect width="23.7116" height="26.9267" fill="white" transform="translate(0.849609 0.234009)" />
        </clipPath>
    </defs>
</svg>