<svg width="93" height="93" viewBox="0 0 93 93" fill="none" xmlns="http://www.w3.org/2000/svg">
<path d="M80.4319 42.9578C83.1553 41.0441 84.9586 37.8606 84.9586 34.2724C84.9586 28.4024 80.2111 23.6549 74.3411 23.6549C68.4711 23.6549 63.7236 28.4024 63.7236 34.2724C63.7236 37.8606 65.5085 41.0441 68.2503 42.9578C65.9133 43.7674 63.7788 45.0187 61.9755 46.638C59.4913 44.5219 56.5655 42.9026 53.3637 41.9457C57.2463 39.5903 59.8593 35.3029 59.8593 30.4265C59.8593 22.9924 53.8421 16.9752 46.408 16.9752C38.9739 16.9752 32.9567 23.0108 32.9567 30.4265C32.9567 35.3029 35.5512 39.5903 39.4523 41.9457C36.2873 42.9026 33.3983 44.5035 30.9325 46.5828C29.1292 45.0003 27.0315 43.7674 24.7313 42.9762C27.4547 41.0625 29.258 37.879 29.258 34.2908C29.258 28.4208 24.5105 23.6733 18.6405 23.6733C12.7705 23.6733 8.02295 28.4208 8.02295 34.2908C8.02295 37.879 9.80787 41.0625 12.5497 42.9762C5.24436 45.4972 0 52.4344 0 60.5862V61.8007C0 61.8375 0.0368025 61.8743 0.0736051 61.8743H22.5784C22.4495 62.8864 22.3759 63.9352 22.3759 64.9841V66.2354C22.3759 71.6454 26.7554 76.0249 32.1654 76.0249H60.6874C66.0974 76.0249 70.4769 71.6454 70.4769 66.2354V64.9841C70.4769 63.9352 70.4032 62.8864 70.2744 61.8743H92.9264C92.9632 61.8743 93 61.8375 93 61.8007V60.5862C92.9632 52.416 87.7372 45.4788 80.4319 42.9578ZM66.6678 34.254C66.6678 30.0217 70.1088 26.5807 74.3411 26.5807C78.5734 26.5807 82.0145 30.0217 82.0145 34.254C82.0145 38.4311 78.647 41.8353 74.4883 41.9273C74.4331 41.9273 74.3963 41.9273 74.3411 41.9273C74.2859 41.9273 74.2491 41.9273 74.1939 41.9273C70.0168 41.8537 66.6678 38.4495 66.6678 34.254ZM35.8641 30.4265C35.8641 24.6301 40.5748 19.9194 46.3712 19.9194C52.1676 19.9194 56.8783 24.6301 56.8783 30.4265C56.8783 36.0205 52.4804 40.6024 46.9784 40.9152C46.776 40.9152 46.5736 40.9152 46.3712 40.9152C46.1688 40.9152 45.9664 40.9152 45.764 40.9152C40.262 40.6024 35.8641 36.0205 35.8641 30.4265ZM10.912 34.254C10.912 30.0217 14.353 26.5807 18.5853 26.5807C22.8176 26.5807 26.2586 30.0217 26.2586 34.254C26.2586 38.4311 22.8912 41.8353 18.7325 41.9273C18.6773 41.9273 18.6405 41.9273 18.5853 41.9273C18.5301 41.9273 18.4933 41.9273 18.4381 41.9273C14.2794 41.8537 10.912 38.4495 10.912 34.254ZM23.0936 58.9117H2.98101C3.80906 51.0727 10.4335 44.9267 18.4749 44.8715C18.5117 44.8715 18.5485 44.8715 18.5853 44.8715C18.6221 44.8715 18.6589 44.8715 18.6957 44.8715C22.5231 44.8899 26.0194 46.3068 28.7244 48.607C26.0746 51.4776 24.1057 55.0106 23.0936 58.9117ZM67.4958 66.2354C67.4958 70.0077 64.4228 73.0807 60.6506 73.0807H32.1286C28.3564 73.0807 25.2833 70.0077 25.2833 66.2354V64.9841C25.2833 53.5569 34.4104 44.2091 45.764 43.8778C45.9664 43.8962 46.1872 43.8962 46.3896 43.8962C46.592 43.8962 46.8128 43.8962 47.0152 43.8778C58.3688 44.2091 67.4958 53.5569 67.4958 64.9841V66.2354ZM69.6856 58.9117C68.6735 55.029 66.7414 51.5512 64.11 48.6806C66.8334 46.3252 70.3664 44.9083 74.2307 44.8715C74.2675 44.8715 74.3043 44.8715 74.3411 44.8715C74.3779 44.8715 74.4147 44.8715 74.4515 44.8715C82.4929 44.9267 89.1173 51.0727 89.9454 58.9117H69.6856Z" fill="black"/>
</svg>
