<svg width="74" height="74" viewBox="0 0 74 74" fill="none" xmlns="http://www.w3.org/2000/svg">
<path d="M24.6668 53.0333H22.2001C21.519 53.0333 20.9668 53.5856 20.9668 54.2667C20.9668 54.9478 21.519 55.5 22.2001 55.5H24.6668C25.3479 55.5 25.9001 54.9478 25.9001 54.2667C25.9001 53.5856 25.3479 53.0333 24.6668 53.0333Z" fill="black"/>
<path d="M59.2005 53.0333H29.6005C28.9194 53.0333 28.3672 53.5856 28.3672 54.2667C28.3672 54.9478 28.9194 55.5 29.6005 55.5H59.2005C59.8816 55.5 60.4338 54.9478 60.4338 54.2667C60.4338 53.5856 59.8816 53.0333 59.2005 53.0333Z" fill="black"/>
<path d="M24.6668 45.6333H22.2001C21.519 45.6333 20.9668 46.1856 20.9668 46.8667C20.9668 47.5478 21.519 48.1 22.2001 48.1H24.6668C25.3479 48.1 25.9001 47.5478 25.9001 46.8667C25.9001 46.1856 25.3479 45.6333 24.6668 45.6333Z" fill="black"/>
<path d="M59.2005 45.6333H29.6005C28.9194 45.6333 28.3672 46.1856 28.3672 46.8667C28.3672 47.5478 28.9194 48.1 29.6005 48.1H59.2005C59.8816 48.1 60.4338 47.5478 60.4338 46.8667C60.4338 46.1856 59.8816 45.6333 59.2005 45.6333Z" fill="black"/>
<path d="M24.6668 38.2333H22.2001C21.519 38.2333 20.9668 38.7856 20.9668 39.4667C20.9668 40.1478 21.519 40.7 22.2001 40.7H24.6668C25.3479 40.7 25.9001 40.1478 25.9001 39.4667C25.9001 38.7856 25.3479 38.2333 24.6668 38.2333Z" fill="black"/>
<path d="M59.2005 38.2333H29.6005C28.9194 38.2333 28.3672 38.7856 28.3672 39.4667C28.3672 40.1478 28.9194 40.7 29.6005 40.7H59.2005C59.8816 40.7 60.4338 40.1478 60.4338 39.4667C60.4338 38.7856 59.8816 38.2333 59.2005 38.2333Z" fill="black"/>
<path d="M24.6668 30.8333H22.2001C21.519 30.8333 20.9668 31.3855 20.9668 32.0666C20.9668 32.7478 21.519 33.3 22.2001 33.3H24.6668C25.3479 33.3 25.9001 32.7478 25.9001 32.0666C25.9001 31.3855 25.3479 30.8333 24.6668 30.8333Z" fill="black"/>
<path d="M59.2005 30.8333H29.6005C28.9194 30.8333 28.3672 31.3855 28.3672 32.0666C28.3672 32.7478 28.9194 33.3 29.6005 33.3H59.2005C59.8816 33.3 60.4338 32.7478 60.4338 32.0666C60.4338 31.3855 59.8816 30.8333 59.2005 30.8333Z" fill="black"/>
<path d="M24.6668 23.4333H22.2001C21.519 23.4333 20.9668 23.9856 20.9668 24.6667C20.9668 25.3478 21.519 25.9 22.2001 25.9H24.6668C25.3479 25.9 25.9001 25.3478 25.9001 24.6667C25.9001 23.9856 25.3479 23.4333 24.6668 23.4333Z" fill="black"/>
<path d="M59.2005 23.4333H29.6005C28.9194 23.4333 28.3672 23.9856 28.3672 24.6667C28.3672 25.3478 28.9194 25.9 29.6005 25.9H59.2005C59.8816 25.9 60.4338 25.3478 60.4338 24.6667C60.4338 23.9856 59.8816 23.4333 59.2005 23.4333Z" fill="black"/>
<path d="M67.8167 18.4223C67.8105 18.3142 67.7894 18.2075 67.7537 18.1053C67.7402 18.0659 67.7303 18.0276 67.7131 17.9894C67.6531 17.8553 67.5695 17.7329 67.4664 17.628L50.1997 0.361367C50.0949 0.258229 49.9725 0.174671 49.8383 0.1147C49.8001 0.0974333 49.7619 0.0875667 49.7237 0.074C49.6205 0.0385417 49.5131 0.0169583 49.4042 0.00986667C49.3832 0.0135667 49.3598 0 49.3327 0H14.7993C14.1182 0 13.566 0.552225 13.566 1.23333V4.93333H7.39935C6.71824 4.93333 6.16602 5.48556 6.16602 6.16667V72.7667C6.16602 73.4478 6.71824 74 7.39935 74H59.1993C59.8805 74 60.4327 73.4478 60.4327 72.7667V66.6H66.5993C67.2805 66.6 67.8327 66.0478 67.8327 65.3667V18.5C67.8327 18.4729 67.8191 18.4494 67.8167 18.4223ZM50.566 4.2106L63.6221 17.2667H50.566V4.2106ZM57.966 71.5333H8.63268V7.4H13.566V65.3667C13.566 66.0478 14.1182 66.6 14.7993 66.6H57.966V71.5333ZM65.366 64.1333H16.0327V2.46667H48.0993V18.5C48.0993 19.1811 48.6516 19.7333 49.3327 19.7333H65.366V64.1333Z" fill="black"/>
<path d="M29.6001 11.1H22.2001C21.519 11.1 20.9668 11.6522 20.9668 12.3333V19.7333C20.9668 20.4144 21.519 20.9667 22.2001 20.9667H29.6001C30.2812 20.9667 30.8335 20.4144 30.8335 19.7333V12.3333C30.8335 11.6522 30.2812 11.1 29.6001 11.1ZM28.3668 18.5H23.4335V13.5667H28.3668V18.5Z" fill="black"/>
</svg>
