<svg width="73" height="73" viewBox="0 0 73 73" fill="none" xmlns="http://www.w3.org/2000/svg">
<path d="M25.9903 44.81L28.1896 47.0093C28.9511 47.7705 30.183 47.7705 30.9445 47.0093L32.3208 45.6328C32.5417 45.7339 32.7679 45.8276 32.9965 45.9127V47.8592C32.9965 48.9334 33.8703 49.8072 34.9445 49.8072H38.0546C39.1288 49.8072 40.0026 48.9334 40.0026 47.8592V45.9127C40.2312 45.8276 40.4574 45.7339 40.6783 45.6328L42.0547 47.0094C42.814 47.7682 44.05 47.7686 44.8095 47.0093L47.0088 44.81C47.7681 44.0506 47.7681 42.8148 47.0086 42.055L45.6323 40.6788C45.7334 40.4579 45.8271 40.2317 45.9122 40.0031H47.8587C48.9329 40.0031 49.8067 39.1293 49.8067 38.0551V34.945C49.8067 33.8708 48.9329 32.997 47.8587 32.997H45.9122C45.8272 32.7686 45.7334 32.5423 45.6323 32.3213L47.0089 30.9448C47.7681 30.1853 47.7681 28.9495 47.0088 28.1901L44.8094 25.9908C44.05 25.2313 42.8141 25.2316 42.0545 25.9908L40.6783 27.3673C40.4574 27.2662 40.2312 27.1725 40.0026 27.0874V25.1409C40.0026 24.0667 39.1288 23.1929 38.0546 23.1929H34.9445C33.8703 23.1929 32.9965 24.0667 32.9965 25.1409V27.0874C32.7676 27.1727 32.5412 27.2663 32.3208 27.3673L30.9445 25.991C30.1834 25.2296 28.9508 25.2295 28.1896 25.991L25.9903 28.1901C25.231 28.9495 25.231 30.1853 25.9905 30.9451L27.3668 32.3213C27.2657 32.5421 27.172 32.7684 27.0869 32.997H25.1404C24.0662 32.997 23.1924 33.8708 23.1924 34.945V38.0551C23.1924 39.1293 24.0662 40.0031 25.1404 40.0031H27.0869C27.172 40.2318 27.2658 40.4581 27.3668 40.6788L25.9902 42.0553C25.231 42.8148 25.231 44.0506 25.9903 44.81ZM27.2212 37.8643H25.3311V35.1354H27.2212C28.0427 35.1354 28.7792 34.6171 29.0538 33.8462C29.1426 33.5967 29.2448 33.3499 29.3579 33.1119C29.7092 32.3719 29.5549 31.4845 28.9742 30.9038L27.6377 29.5673L29.5672 27.6377L30.9037 28.9744C31.4844 29.555 32.3718 29.7095 33.1124 29.3577C33.3494 29.2452 33.5963 29.1428 33.846 29.0538C34.6172 28.7792 35.1354 28.0428 35.1354 27.2214V25.3313H37.8644V27.2214C37.8644 28.0428 38.3827 28.7792 39.1536 29.0538C39.4031 29.1427 39.6499 29.2449 39.8878 29.358C40.6278 29.7094 41.5149 29.5549 42.096 28.9743L43.4325 27.6377L45.362 29.5673L44.0253 30.9038C43.4446 31.4846 43.2905 32.3721 43.6418 33.1119C43.7549 33.3499 43.8571 33.5968 43.9459 33.8459C44.2205 34.6171 44.9569 35.1354 45.7785 35.1354H47.6686V37.8643H45.7783C44.9569 37.8643 44.2205 38.3826 43.946 39.1535C43.8571 39.403 43.7549 39.6498 43.6418 39.8878C43.2906 40.6275 43.4447 41.5149 44.0255 42.0959L45.362 43.4324L43.4325 45.3619L42.0957 44.0251C41.5151 43.4447 40.628 43.2905 39.8874 43.6419C39.6499 43.7548 39.4031 43.857 39.1539 43.9457C38.3825 44.2203 37.8642 44.9567 37.8642 45.7783V47.6686H35.1353V45.7783C35.1353 44.9569 34.617 44.2204 33.8461 43.946C33.5966 43.857 33.3498 43.7548 33.1118 43.6417C32.3717 43.2903 31.4844 43.4448 30.9037 44.0252L29.5672 45.3619L27.6377 43.4324L28.9745 42.0956C29.5549 41.5149 29.7091 40.6275 29.3577 39.8873C29.2448 39.6498 29.1426 39.403 29.0538 39.1536C28.7792 38.3826 28.0427 37.8643 27.2212 37.8643Z" fill="black"/>
<path d="M36.5004 42.2073C39.6474 42.2073 42.2076 39.647 42.2076 36.4999C42.2076 33.3529 39.6474 30.7926 36.5004 30.7926C33.3534 30.7926 30.793 33.3529 30.793 36.4999C30.793 39.647 33.3534 42.2073 36.5004 42.2073ZM36.5004 32.9313C38.4681 32.9313 40.069 34.5323 40.069 36.4999C40.069 38.4677 38.4679 40.0686 36.5004 40.0686C34.5325 40.0686 32.9316 38.4676 32.9316 36.4999C32.9316 34.5321 34.5325 32.9313 36.5004 32.9313Z" fill="black"/>
<path d="M13.4334 26.867C20.8603 26.867 26.867 20.8315 26.867 13.4336C26.867 6.02621 20.8406 0 13.4334 0C6.02621 0 0 6.02621 0 13.4334C0 20.8348 6.02193 26.867 13.4334 26.867ZM20.5913 22.1636C18.5671 23.8262 16.0472 24.7283 13.4334 24.7283C10.8761 24.7283 8.34196 23.8609 6.27572 22.1638C6.27572 19.9497 8.0213 18.412 9.9625 18.412H16.9043C18.8475 18.4118 20.5913 19.9512 20.5913 22.1636ZM13.4334 2.13867C19.6615 2.13867 24.7283 7.20547 24.7283 13.4334C24.7283 15.9941 23.8704 18.3574 22.429 20.2539C21.6553 17.9435 19.472 16.2732 16.9043 16.2732H9.9625C7.3951 16.2732 5.21166 17.9435 4.43803 20.2539C2.99656 18.3574 2.13867 15.9941 2.13867 13.4334C2.13867 7.20547 7.20547 2.13867 13.4334 2.13867Z" fill="black"/>
<path d="M59.5664 46.1329C52.1592 46.1329 46.1328 52.1592 46.1328 59.5664C46.1328 66.9707 52.1483 72.9999 59.5664 72.9999C66.9471 72.9999 72.9998 67.0005 72.9998 59.5664C72.9998 52.1592 66.9736 46.1329 59.5664 46.1329ZM66.7241 68.2966C62.5765 71.7034 56.5889 71.7303 52.4085 68.2966C52.4085 66.0825 54.1541 64.545 56.0953 64.545H63.0371C64.9806 64.5448 66.7241 66.0841 66.7241 68.2966ZM68.5618 66.3869C67.7881 64.0765 65.6048 62.4062 63.0373 62.4062H56.0955C53.5281 62.4062 51.3448 64.0765 50.5711 66.3869C49.1295 64.4904 48.2716 62.1271 48.2716 59.5664C48.2716 53.3383 53.3384 48.2715 59.5665 48.2715C65.7945 48.2715 70.8613 53.3383 70.8613 59.5664C70.8611 62.1271 70.0032 64.4904 68.5618 66.3869Z" fill="black"/>
<path d="M17.1299 12.9716C19.1732 10.9285 19.1733 7.62151 17.1299 5.57836H17.13C15.087 3.53536 11.7799 3.53479 9.73676 5.57836C7.69333 7.62137 7.69319 10.9282 9.73648 12.9716C11.7795 15.0146 15.0866 15.015 17.1299 12.9716ZM11.2488 7.0904C12.4533 5.8859 14.413 5.8859 15.6175 7.0904H15.6177C16.8249 8.29776 16.825 10.2518 15.6175 11.4593C14.4132 12.6636 12.4534 12.6636 11.2487 11.4593C10.0415 10.2519 10.0413 8.2979 11.2488 7.0904Z" fill="black"/>
<path d="M9.73685 59.1046C11.7747 61.1425 15.0917 61.1428 17.1301 59.1046C19.1684 57.0662 19.1684 53.7494 17.1301 51.7111H17.13C15.0918 49.6729 11.775 49.6729 9.73671 51.7111C7.69842 53.7494 7.69842 57.0662 9.73685 59.1046ZM11.2489 53.2234C12.4537 52.0189 14.4133 52.0189 15.6178 53.2234C16.8223 54.4278 16.8223 56.3878 15.6179 57.5923C14.4136 58.7969 12.4535 58.7969 11.249 57.5923C10.0445 56.3878 10.0445 54.4278 11.2489 53.2234Z" fill="black"/>
<path d="M55.8694 5.57821C53.8313 7.6165 53.8313 10.9332 55.8694 12.9715C57.9099 15.0119 61.2268 15.0078 63.2628 12.9715C65.3061 10.9283 65.3063 7.62135 63.2628 5.57821H63.263C61.2245 3.53962 57.9077 3.53991 55.8694 5.57821ZM61.7506 11.4593C60.5463 12.6638 58.5866 12.6639 57.3818 11.4593C56.1773 10.2548 56.1773 8.29489 57.3818 7.09039C58.5861 5.88589 60.5463 5.88589 61.7506 7.09039H61.7508C62.958 8.29788 62.9581 10.2519 61.7506 11.4593Z" fill="black"/>
<path d="M63.2628 51.7111C61.2246 49.673 57.9077 49.6728 55.8694 51.7113C53.8313 53.7496 53.8313 57.0664 55.8696 59.1047C57.9079 61.143 61.2245 61.1428 63.2629 59.1047C65.3012 57.0662 65.3012 53.7494 63.2628 51.7111ZM61.7508 57.5923C60.5464 58.7968 58.5865 58.797 57.3817 57.5925C56.1774 56.388 56.1774 54.4279 57.3816 53.2234C58.5862 52.0191 60.546 52.0189 61.7506 53.2234C62.9551 54.4278 62.9551 56.3878 61.7508 57.5923Z" fill="black"/>
<path d="M43.2283 14.5027C43.819 14.5027 44.2976 14.024 44.2976 13.4334C44.2976 12.8429 43.819 12.3641 43.2283 12.3641H29.7715C29.1808 12.3641 28.7021 12.8429 28.7021 13.4334C28.7021 14.024 29.1808 14.5027 29.7715 14.5027H43.2283Z" fill="black"/>
<path d="M29.7715 58.4971C29.1808 58.4971 28.7021 58.9757 28.7021 59.5664C28.7021 60.1571 29.1808 60.6358 29.7715 60.6358H43.2283C43.819 60.6358 44.2976 60.1571 44.2976 59.5664C44.2976 58.9757 43.819 58.4971 43.2283 58.4971H29.7715Z" fill="black"/>
<path d="M14.5029 43.2283V29.7715C14.5029 29.1808 14.0243 28.7021 13.4336 28.7021C12.8429 28.7021 12.3643 29.1808 12.3643 29.7715V43.2283C12.3643 43.819 12.8429 44.2976 13.4336 44.2976C14.0243 44.2976 14.5029 43.819 14.5029 43.2283Z" fill="black"/>
<path d="M60.6357 43.2283V29.7715C60.6357 29.1808 60.1571 28.7021 59.5664 28.7021C58.9757 28.7021 58.4971 29.1808 58.4971 29.7715V43.2283C58.4971 43.819 58.9757 44.2976 59.5664 44.2976C60.1571 44.2976 60.6357 43.819 60.6357 43.2283Z" fill="black"/>
<path d="M70.6504 11.254C70.7636 11.8336 71.3261 12.212 71.9049 12.0983C72.4845 11.9851 72.8626 11.4234 72.7493 10.8438C71.5216 4.5605 65.9773 0 59.5664 0C52.1592 0 46.1328 6.02621 46.1328 13.4334C46.1328 20.8764 52.1837 26.8669 59.5664 26.8669C65.9101 26.8669 71.3814 22.41 72.7 16.2633C72.8239 15.6859 72.4561 15.1173 71.8787 14.9935C71.302 14.87 70.7328 15.2373 70.6089 15.8148C70.2553 17.463 69.5403 18.966 68.5603 20.2499C67.7856 17.9415 65.6033 16.2732 63.0373 16.2732H56.0955C53.5281 16.2732 51.3446 17.9435 50.571 20.2539C49.1294 18.3574 48.2716 15.9941 48.2716 13.4334C48.2715 7.20547 53.3384 2.13867 59.5664 2.13867C64.9568 2.13867 69.6183 5.97217 70.6504 11.254ZM56.0955 18.4118H63.0373C65.0703 18.4118 66.7241 20.0657 66.7241 22.0988V22.1511C64.7527 23.7678 62.2427 24.7283 59.5664 24.7283C57.0459 24.7283 54.5004 23.882 52.4085 22.1636C52.4085 19.9495 54.1541 18.4118 56.0955 18.4118Z" fill="black"/>
<path d="M13.4334 72.9999C20.8468 72.9999 26.867 66.9711 26.867 59.5664C26.867 53.2144 22.357 47.68 16.1433 46.4065C15.5655 46.2888 14.9995 46.6608 14.8809 47.2394C14.7623 47.818 15.1352 48.383 15.7138 48.5018C20.9372 49.5721 24.7283 54.2256 24.7283 59.5664C24.7283 62.127 23.8704 64.4902 22.4288 66.3869C21.6552 64.0765 19.4719 62.4062 16.9043 62.4062H9.9625C7.3951 62.4062 5.21166 64.0765 4.43803 66.3869C2.99656 64.4904 2.13867 62.1271 2.13867 59.5664C2.13867 54.2255 5.92968 49.572 11.153 48.5018C11.7316 48.3832 12.1045 47.818 11.986 47.2394C11.8675 46.6608 11.3025 46.2886 10.7236 46.4065C4.50989 47.68 0 53.2144 0 59.5664C0 66.9603 6.00382 72.9999 13.4334 72.9999ZM9.9625 64.5448H16.9043C18.8477 64.5448 20.5913 66.0841 20.5913 68.2965C16.4508 71.6973 10.4617 71.7348 6.27572 68.2965C6.27572 66.0824 8.0213 64.5448 9.9625 64.5448Z" fill="black"/>
</svg>
