<svg width="106" height="106" viewBox="0 0 106 106" fill="none" xmlns="http://www.w3.org/2000/svg">
<g clip-path="url(#clip0_225:1134)">
<path d="M64.3099 80.2682C62.8829 80.3127 61.8102 78.7072 62.399 77.4068C63.0777 75.7174 65.5422 75.7174 66.2208 77.4068C66.8094 78.7072 65.7372 80.3129 64.3099 80.2682Z" fill="#F8F8F8"/>
<path d="M34.7577 93.1969C34.2279 93.1969 33.6979 92.9948 33.2938 92.5905L22.581 81.8776C21.7725 81.0692 21.7725 79.7583 22.581 78.9496C23.3894 78.1411 24.7003 78.1411 25.509 78.9496L36.2218 89.6624C37.0303 90.4709 37.0303 91.7818 36.2218 92.5905C35.8175 92.9948 35.2875 93.1969 34.7577 93.1969Z" fill="#F8F8F8"/>
<path d="M37.4653 83.9875C36.9353 83.9875 36.4058 83.7855 36.0014 83.3811L31.7919 79.1716C30.9834 78.3631 30.9834 77.0522 31.7921 76.2437C32.6005 75.4355 33.9114 75.4353 34.7199 76.2437L38.9295 80.4533C39.7379 81.2617 39.7379 82.5727 38.9293 83.3811C38.5251 83.7852 37.9951 83.9875 37.4653 83.9875Z" fill="#F8F8F8"/>
<path d="M106.001 19.2757C106.001 18.7266 105.782 18.2 105.394 17.8118L97.3587 9.77834C96.5502 8.97009 95.2395 8.97009 94.4309 9.77855L91.4753 12.7341L90.6198 11.8787C89.8114 11.0702 88.5004 11.0702 87.6918 11.8787C86.8831 12.6871 86.8833 13.9981 87.6918 14.8067L88.5474 15.6624L86.9701 17.2397L86.1144 16.3841C85.306 15.5756 83.995 15.5756 83.1864 16.3841C82.3779 17.1925 82.3779 18.5035 83.1864 19.3121L84.042 20.1678L67.3394 36.8702C59.2326 31.852 51.0876 31.9535 45.7947 37.2466C44.2924 38.7474 43.1668 40.2208 42.3538 41.7508C39.3765 47.351 32.7285 52.3868 26.8894 53.4642C22.5428 54.2671 18.609 56.239 15.513 59.1673C11.5244 62.9415 9.35861 67.8647 9.25033 73.4044C9.10479 80.8368 12.714 88.879 19.1531 95.4684C25.6516 102.118 33.663 105.957 41.1334 106C41.1764 106 41.2191 106 41.2621 106C46.7667 106 51.7168 103.959 55.5843 100.092C58.7478 96.9273 60.8651 92.8447 61.7079 88.285C61.8214 87.6709 61.982 87.0364 62.1851 86.3989C62.5325 85.3095 61.9309 84.1448 60.8415 83.7976C59.7521 83.4502 58.5873 84.0516 58.2401 85.1412C57.9842 85.9437 57.7812 86.7484 57.636 87.5326C56.9464 91.2646 55.2243 94.5951 52.6561 97.1639C49.5825 100.237 45.6444 101.859 41.2603 101.859C41.2263 101.859 41.1915 101.859 41.1574 101.859C34.786 101.822 27.8451 98.4382 22.1146 92.5743C16.4463 86.7733 13.2665 79.8158 13.3903 73.4854C13.4767 69.0804 15.1948 65.1693 18.3589 62.1753C20.8729 59.7975 24.0827 58.1932 27.6415 57.5359C34.7152 56.2306 42.4403 50.4093 46.0104 43.6942C46.6278 42.5325 47.5147 41.3819 48.7225 40.1751C53.7111 35.1865 60.5173 37.7737 64.3097 39.9006L47.3557 56.855C44.2173 56.7042 41.029 57.8243 38.6378 60.2155C36.4582 62.3951 35.2578 65.2929 35.2578 68.3752C35.2578 71.4573 36.4582 74.3551 38.6376 76.5347C40.8168 78.7144 43.7146 79.9147 46.7971 79.9147C49.8794 79.9147 52.7772 78.7144 54.9572 76.5347C57.3478 74.1437 58.4679 70.9557 58.3174 67.8179L75.2548 50.88C77.3595 54.7008 79.8691 61.5883 74.6275 66.8301C73.7389 67.7193 72.7257 68.4783 71.6162 69.0853C71.0566 69.3913 70.4902 69.7331 69.9324 70.1019C68.9784 70.7321 68.7161 72.0165 69.3463 72.9705C69.7444 73.5732 70.4034 73.8996 71.0757 73.8996C71.4676 73.8996 71.8636 73.7885 72.215 73.5564C72.677 73.251 73.1439 72.9692 73.6031 72.7181C75.0592 71.9215 76.3893 70.9252 77.5562 69.7574C80.6635 66.65 82.1469 62.6483 81.8458 58.1847C81.6196 54.8302 80.3966 51.2848 78.2903 47.8448L95.005 31.1303L96.2194 32.3447C96.6237 32.7491 97.1535 32.9511 97.6833 32.9511C98.2131 32.9511 98.7431 32.7491 99.1472 32.3447C99.9557 31.5363 99.9557 30.2254 99.1472 29.4167L97.9328 28.2023L99.5102 26.6249L100.725 27.8395C101.129 28.2439 101.659 28.4459 102.189 28.4459C102.719 28.4459 103.249 28.2439 103.653 27.8395C104.461 27.0311 104.461 25.7202 103.653 24.9115L102.438 23.6968L105.394 20.7402C105.783 20.3514 106.001 19.8247 106.001 19.2757ZM52.029 73.6067C50.6313 75.0042 48.7732 75.7739 46.7969 75.7739C44.8206 75.7739 42.9627 75.0044 41.5654 73.6067C38.6804 70.7219 38.6804 66.0279 41.5654 63.1433C43.0076 61.7011 44.9021 60.9801 46.7969 60.9801C48.6914 60.9801 50.5866 61.7012 52.0288 63.1431C54.9129 66.0279 54.9129 70.7221 52.029 73.6067ZM57.1008 63.1783C56.5628 62.1092 55.8483 61.107 54.957 60.2155C54.957 60.2155 54.9568 60.2153 54.9568 60.2151C54.0656 59.324 53.0633 58.6096 51.9946 58.0717L82.4644 27.6012L87.5715 32.7073L57.1008 63.1783ZM90.4995 29.7796L85.3929 24.6732L86.9703 23.0958L92.0769 28.2023L90.4995 29.7796ZM95.0047 25.274L89.8983 20.1676L91.4757 18.5902L96.5821 23.6966L95.0047 25.274ZM94.4035 15.662L95.8954 14.1701L101.002 19.2761L99.5102 20.7686L94.4035 15.662Z" fill="#F8F8F8"/>
<path d="M30.2446 16.4683C30.2446 15.8011 29.9231 15.1748 29.3808 14.786C28.8386 14.397 28.1424 14.2932 27.5103 14.5073L11.2869 19.9996C10.4462 20.2843 9.88036 21.0731 9.88036 21.9606V37.6108C9.004 37.216 8.0324 36.9961 7.01049 36.9961C3.14501 36.9961 0 40.1409 0 44.0066C0 47.8721 3.1448 51.0171 7.01049 51.0171C10.8762 51.0171 14.021 47.8723 14.021 44.0066C14.021 43.8863 14.021 23.4455 14.021 23.4455L26.1037 19.355V32.1182C25.2274 31.7234 24.2558 31.5035 23.2339 31.5035C19.3682 31.5035 16.2234 34.6483 16.2234 38.514C16.2234 42.3797 19.3682 45.5245 23.2339 45.5245C27.0996 45.5245 30.2444 42.3797 30.2444 38.514C30.2446 38.3938 30.2446 16.4683 30.2446 16.4683ZM7.01049 46.8764C5.42795 46.8764 4.14062 45.5891 4.14062 44.0066C4.14062 42.424 5.42815 41.1367 7.01049 41.1367C8.59283 41.1367 9.88036 42.4242 9.88036 44.0066C9.88057 45.5889 8.59304 46.8764 7.01049 46.8764ZM23.2341 41.3839C21.6515 41.3839 20.3642 40.0964 20.3642 38.514C20.3642 36.9315 21.6517 35.6442 23.2341 35.6442C24.8166 35.6442 26.1039 36.9317 26.1039 38.514C26.1039 40.0966 24.8164 41.3839 23.2341 41.3839Z" fill="#F8F8F8"/>
<path d="M96.5047 72.8417L89.5131 70.4747C88.8808 70.2607 88.1847 70.3646 87.6425 70.7534C87.1003 71.1422 86.7788 71.7685 86.7788 72.4357V88.0856C85.9024 87.6908 84.9308 87.471 83.9089 87.471C80.0432 87.471 76.8984 90.6158 76.8984 94.4815C76.8984 98.3471 80.0432 101.492 83.9089 101.492C87.7746 101.492 90.9194 98.3471 90.9194 94.4815C90.9194 94.3612 90.9194 93.9945 90.9194 93.9293V75.3224L95.177 76.7637C96.26 77.1308 97.4353 76.5497 97.8018 75.4667C98.1686 74.3835 97.5877 73.2084 96.5047 72.8417ZM83.9089 97.3513C82.3264 97.3513 81.0391 96.0638 81.0391 94.4815C81.0391 92.8989 82.3266 91.6116 83.9089 91.6116C85.4915 91.6116 86.7788 92.8991 86.7788 94.4815C86.7788 96.064 85.4915 97.3513 83.9089 97.3513Z" fill="#F8F8F8"/>
<path d="M56.5925 22.2764C56.1849 22.2764 55.7774 22.1564 55.4259 21.9164C53.9651 20.92 46.5914 15.815 44.8781 13.1532C44.1319 11.9938 43.1595 10.1539 43.3253 7.56914C43.6013 3.27945 47.113 -0.0454705 51.3151 0.000283451C53.6771 0.0259553 55.5555 1.28139 56.7991 2.45526C58.073 1.32528 59.9613 0.118291 62.2146 0.118291C62.2374 0.118291 62.26 0.118291 62.2828 0.118498C66.4871 0.163838 69.9243 3.56329 70.1077 7.85753C70.2183 10.4394 69.2069 12.2601 68.4366 13.4049C66.6553 16.0508 59.1986 20.9796 57.7219 21.9408C57.3784 22.1648 56.9852 22.2764 56.5925 22.2764ZM51.2327 4.1407C49.2785 4.1407 47.5889 5.78971 47.4573 7.83497C47.3879 8.91691 47.6492 9.8086 48.3597 10.9123C49.1872 12.1982 53.355 15.4082 56.619 17.7056C59.9195 15.4858 64.1409 12.3719 65.0013 11.0934C65.736 10.0015 66.017 9.11525 65.9708 8.03475C65.8828 5.97417 64.2081 4.28045 62.238 4.25933C60.5882 4.24505 58.8048 6.23151 58.4204 6.76544C58.021 7.32029 57.3769 7.64036 56.6898 7.62545C56.0062 7.60889 55.375 7.25569 55.0031 6.68201C54.5429 5.98742 52.9639 4.15933 51.2704 4.14091C51.2579 4.1407 51.2453 4.1407 51.2327 4.1407Z" fill="#F8F8F8"/>
</g>
<defs>
<clipPath id="clip0_225:1134">
<rect width="106" height="106" fill="white"/>
</clipPath>
</defs>
</svg>
