<svg width="97" height="97" viewBox="0 0 97 97" fill="none" xmlns="http://www.w3.org/2000/svg">
<g clip-path="url(#clip0_225:1048)">
<path d="M66.3084 45.3084C67.2005 45.3084 67.9238 44.5851 67.9238 43.693C67.9238 42.8009 67.2005 42.0776 66.3084 42.0776H46.924C46.0319 42.0776 45.3086 42.8009 45.3086 43.693C45.3086 44.5851 46.0319 45.3084 46.924 45.3084H66.3084Z" fill="#0B093A"/>
<path d="M72.7698 72.7697C71.8777 72.7697 71.1544 73.493 71.1544 74.3851V88.9234C71.1544 91.5997 68.9854 93.7695 66.3083 93.7695H30.7702C28.094 93.7695 25.9241 91.5997 25.9241 88.9234V63.0775C25.9241 62.1854 25.2008 61.4622 24.3087 61.4622C23.4166 61.4622 22.6934 62.1854 22.6934 63.0775V88.9234C22.6989 93.3815 26.3122 96.9947 30.7702 97.0003H66.3083C70.7672 96.9947 74.3804 93.3815 74.3852 88.9234V74.3851C74.3852 73.493 73.6619 72.7697 72.7698 72.7697Z" fill="#0B093A"/>
<path d="M32.3849 63.0775C31.4928 63.0775 30.7695 63.8008 30.7695 64.6929C30.7695 65.585 31.4928 66.3083 32.3849 66.3083H45.3079C46.1999 66.3083 46.9232 65.585 46.9232 64.6929C46.9232 63.8008 46.1999 63.0775 45.3079 63.0775H32.3849Z" fill="#0B093A"/>
<path d="M64.6916 71.1543H40.4611C39.569 71.1543 38.8457 71.8776 38.8457 72.7697C38.8457 73.6617 39.569 74.385 40.4611 74.385H64.6916C65.5837 74.385 66.307 73.6617 66.307 72.7697C66.307 71.8776 65.5837 71.1543 64.6916 71.1543Z" fill="#0B093A"/>
<path d="M46.9232 80.8466C46.9232 79.9545 46.1999 79.2312 45.3079 79.2312H32.3849C31.4928 79.2312 30.7695 79.9545 30.7695 80.8466C30.7695 81.7386 31.4928 82.4619 32.3849 82.4619H45.3079C46.1999 82.4619 46.9232 81.7386 46.9232 80.8466Z" fill="#0B093A"/>
<path d="M66.3079 80.8466C66.3079 79.9545 65.5846 79.2312 64.6925 79.2312H53.3849C52.4928 79.2312 51.7695 79.9545 51.7695 80.8466C51.7695 81.7386 52.4928 82.4619 53.3849 82.4619H64.6925C65.5846 82.4619 66.3079 81.7386 66.3079 80.8466Z" fill="#0B093A"/>
<path d="M32.3849 85.6926C31.4928 85.6926 30.7695 86.4159 30.7695 87.308C30.7695 88.2001 31.4928 88.9234 32.3849 88.9234H42.0771C42.9692 88.9234 43.6925 88.2001 43.6925 87.308C43.6925 86.4159 42.9692 85.6926 42.0771 85.6926H32.3849Z" fill="#0B093A"/>
<path d="M50.1544 85.6926C49.2623 85.6926 48.5391 86.4159 48.5391 87.308C48.5391 88.2001 49.2623 88.9234 50.1544 88.9234H59.8466C60.7387 88.9234 61.462 88.2001 61.462 87.308C61.462 86.4159 60.7387 85.6926 59.8466 85.6926H50.1544Z" fill="#0B093A"/>
<path d="M42.0777 50.1545V37.2316C42.073 32.7727 38.4597 29.1594 34.0009 29.1547V27.5393C34.0009 24.8623 31.8318 22.6932 29.1548 22.6932C26.4785 22.6932 24.3087 24.8623 24.3087 27.5393V29.1547H8.15497C3.69693 29.1594 0.0836463 32.7727 0.078125 37.2316V50.1545C0.0836463 54.6126 3.69693 58.2258 8.15497 58.2314H34.0009C38.4597 58.2258 42.073 54.6126 42.0777 50.1545ZM27.5394 27.5393C27.5394 26.6473 28.2627 25.924 29.1548 25.924C30.0469 25.924 30.7701 26.6473 30.7701 27.5393V29.1547H27.5394V27.5393ZM3.30886 50.1545V37.2316C3.30886 34.5545 5.47873 32.3855 8.15497 32.3855H34.0009C36.6779 32.3855 38.847 34.5545 38.847 37.2316V50.1545C38.847 52.8308 36.6779 55.0006 34.0009 55.0006H8.15497C5.47873 55.0006 3.30886 52.8308 3.30886 50.1545Z" fill="#0B093A"/>
<path d="M27.5383 42.0777C26.6462 42.0777 25.923 42.801 25.923 43.6931C25.923 46.3693 23.7539 48.5392 21.0768 48.5392C18.4006 48.5392 16.2307 46.3693 16.2307 43.6931C16.2307 41.016 18.4006 38.847 21.0768 38.847C21.9689 38.847 22.6922 38.1237 22.6922 37.2316C22.6922 36.3395 21.9689 35.6162 21.0768 35.6162C16.6164 35.6162 13 39.2319 13 43.6931C13 48.1535 16.6164 51.7699 21.0768 51.7699C25.538 51.7699 29.1537 48.1535 29.1537 43.6931C29.1537 42.801 28.4304 42.0777 27.5383 42.0777Z" fill="#0B093A"/>
<path d="M9.7698 50.1546C9.7698 51.0466 9.04651 51.7699 8.15443 51.7699C7.26235 51.7699 6.53906 51.0466 6.53906 50.1546C6.53906 49.2625 7.26235 48.5392 8.15443 48.5392C9.04651 48.5392 9.7698 49.2625 9.7698 50.1546Z" fill="#0B093A"/>
<path d="M96.1811 13.2108C95.6739 12.9237 95.0524 12.9316 94.5531 13.2321L86.8604 17.8471H82.4615C82.4512 14.2259 80.0289 11.0551 76.5379 10.0928C78.33 7.43237 77.904 3.86168 75.537 1.69734C73.1699 -0.467794 69.5756 -0.573487 67.0855 1.44809C64.5954 3.46888 63.9597 7.00881 65.5908 9.77024H61.1651C61.356 9.25282 61.4569 8.70621 61.4617 8.15487C61.4632 5.95977 59.9891 4.03836 57.8697 3.47046C55.7495 2.90334 53.5126 3.83092 52.417 5.73261C51.3214 7.63429 51.6401 10.0345 53.1947 11.5844C51.7221 12.7502 50.7038 14.3939 50.3158 16.2317H43.6926C43.2296 16.2317 42.7887 16.4305 42.4819 16.7783C42.1758 17.1254 42.0331 17.5876 42.0906 18.0474L42.8983 24.5089C43.0277 25.3765 43.8259 25.9823 44.6959 25.8735C45.5667 25.7646 46.1914 24.9806 46.103 24.1082L45.5233 19.4625H50.1541V29.1547H45.308C44.4159 29.1547 43.6926 29.878 43.6926 30.77C43.6926 31.6621 44.4159 32.3854 45.308 32.3854H50.3158C51.0888 36.143 54.3944 38.8422 58.2309 38.8469H74.3846C78.8435 38.8414 82.4567 35.2281 82.4615 30.77H86.8604L94.5531 35.385C95.0516 35.6848 95.6731 35.6927 96.1803 35.4063C96.6866 35.12 96.9998 34.5829 96.9998 34.0008V14.6163C96.9998 14.0342 96.6874 13.4979 96.1811 13.2108ZM67.9231 6.5395C67.9231 4.75534 69.3697 3.30876 71.1539 3.30876C72.9388 3.30876 74.3846 4.75534 74.3846 6.5395C74.3846 8.32366 72.9388 9.77024 71.1539 9.77024C69.3697 9.77024 67.9231 8.32366 67.9231 6.5395ZM56.6156 6.5395C57.5076 6.5395 58.2309 7.26279 58.2309 8.15487C58.2309 9.04695 57.5076 9.77024 56.6156 9.77024C55.7235 9.77024 55.0002 9.04695 55.0002 8.15487C55.0002 7.26279 55.7235 6.5395 56.6156 6.5395ZM79.2307 30.77C79.2307 33.4463 77.0617 35.6161 74.3846 35.6161H58.2309C55.5547 35.6161 53.3848 33.4463 53.3848 30.77V17.8471C53.3848 15.1701 55.5547 13.001 58.2309 13.001H74.3846C77.0617 13.001 79.2307 15.1701 79.2307 17.8471V30.77ZM82.4615 21.0778H85.6922V27.5393H82.4615V21.0778ZM93.7691 31.1479L88.9229 28.2405V20.3766L93.7691 17.4685V31.1479Z" fill="#0B093A"/>
<path d="M71.1533 16.2318H61.4611C60.569 16.2318 59.8457 16.9551 59.8457 17.8472C59.8457 18.7393 60.569 19.4625 61.4611 19.4625H71.1533C72.0454 19.4625 72.7687 20.1858 72.7687 21.0779V24.3087C72.7687 25.2007 72.0454 25.924 71.1533 25.924H61.4611C60.569 25.924 59.8457 26.6473 59.8457 27.5394C59.8457 28.4315 60.569 29.1548 61.4611 29.1548H71.1533C73.8303 29.1548 75.9994 26.9849 75.9994 24.3087V21.0779C75.9994 18.4009 73.8303 16.2318 71.1533 16.2318Z" fill="#0B093A"/>
<path d="M81.7526 43.9707C81.3085 43.6702 80.7438 43.6095 80.2453 43.809L64.3811 50.1546H53.385C52.493 50.1546 51.7697 50.8779 51.7697 51.7699C51.7697 52.662 52.493 53.3853 53.385 53.3853H63.0772V63.0775H53.385V59.8468C53.385 58.9547 52.6617 58.2314 51.7697 58.2314C50.8776 58.2314 50.1543 58.9547 50.1543 59.8468V63.0775C50.1543 64.8617 51.6009 66.3083 53.385 66.3083H64.3811L80.2453 72.6546C80.7438 72.8541 81.3077 72.7934 81.7526 72.4929C82.1967 72.1924 82.4625 71.6907 82.4617 71.1544V45.3085C82.4617 44.7721 82.1967 44.2713 81.7526 43.9707ZM79.2309 68.7684L66.308 63.5989V52.8632L79.2309 47.6944V68.7684Z" fill="#0B093A"/>
<path d="M87.3067 50.1545C87.6253 50.1538 87.9369 50.0599 88.2019 49.8832L93.048 46.6525C93.7902 46.1571 93.9906 45.1538 93.4952 44.4116C92.9999 43.6694 91.9974 43.4691 91.2552 43.9644L86.4091 47.1951C85.8159 47.5903 85.5525 48.3262 85.7592 49.0077C85.9658 49.6892 86.5944 50.1553 87.3067 50.1545Z" fill="#0B093A"/>
<path d="M88.2036 64.9642C87.4613 64.4688 86.4581 64.6692 85.9627 65.4114C85.4682 66.1536 85.6685 67.1569 86.4107 67.6522L91.2568 70.883C91.999 71.3775 93.0023 71.1772 93.4969 70.435C93.9922 69.6927 93.7919 68.6902 93.0497 68.1949L88.2036 64.9642Z" fill="#0B093A"/>
<path d="M95.3835 55.0006H88.922C88.0299 55.0006 87.3066 55.7239 87.3066 56.616C87.3066 57.5081 88.0299 58.2314 88.922 58.2314H95.3835C96.2756 58.2314 96.9989 57.5081 96.9989 56.616C96.9989 55.7239 96.2756 55.0006 95.3835 55.0006Z" fill="#0B093A"/>
</g>
<defs>
<clipPath id="clip0_225:1048">
<rect width="97" height="97" fill="white"/>
</clipPath>
</defs>
</svg>
