<svg width="110" height="110" viewBox="0 0 110 110" fill="none" xmlns="http://www.w3.org/2000/svg">
<path d="M36.666 55C36.666 45.5228 28.9557 37.8125 19.4785 37.8125C10.0013 37.8125 2.29102 45.5228 2.29102 55C2.29102 64.4772 10.0013 72.1875 19.4785 72.1875C28.9557 72.1875 36.666 64.4772 36.666 55ZM18.3327 68.75V69.8374C11.0337 69.2782 5.20029 63.4448 4.64112 56.1458H5.72852C6.36216 56.1458 6.87435 55.6336 6.87435 55C6.87435 54.3664 6.36216 53.8542 5.72852 53.8542H4.64112C5.20029 46.5552 11.0337 40.7218 18.3327 40.1626V41.25C18.3327 41.8836 18.8449 42.3958 19.4785 42.3958C20.1122 42.3958 20.6243 41.8836 20.6243 41.25V40.1626C27.9233 40.7218 33.7567 46.5552 34.3159 53.8542H33.2285C32.5949 53.8542 32.0827 54.3664 32.0827 55C32.0827 55.6336 32.5949 56.1458 33.2285 56.1458H34.3159C33.7567 63.4448 27.9233 69.2782 20.6243 69.8374V68.75C20.6243 68.1164 20.1122 67.6042 19.4785 67.6042C18.8449 67.6042 18.3327 68.1164 18.3327 68.75Z" fill="#0B093A"/>
<path d="M65.3118 64.1667C65.9455 64.1667 66.4577 63.6545 66.4577 63.0209V60.7292C66.4577 56.964 63.8452 53.8038 60.3401 52.9456C61.9798 51.4766 63.0202 49.3488 63.0202 46.9792C63.0202 42.5574 59.4211 38.9584 54.9993 38.9584C50.5776 38.9584 46.9785 42.5574 46.9785 46.9792C46.9785 49.3488 48.0189 51.4766 49.6586 52.9456C46.1535 53.8038 43.541 56.964 43.541 60.7292V67.6042C43.541 68.2379 44.0532 68.75 44.6868 68.75H65.3118C65.9455 68.75 66.4577 68.2379 66.4577 67.6042C66.4577 66.9706 65.9455 66.4584 65.3118 66.4584H45.8327V60.7292C45.8327 58.1499 47.5583 55.9877 49.9073 55.2727L54.0048 62.4434C54.2087 62.8009 54.5891 63.0209 54.9993 63.0209C55.4096 63.0209 55.79 62.8009 55.9939 62.4434L60.0914 55.2727C62.4404 55.9877 64.166 58.1499 64.166 60.7292V63.0209C64.166 63.6545 64.6782 64.1667 65.3118 64.1667ZM54.9993 59.565L52.3903 55H57.6084L54.9993 59.565ZM54.9993 52.7084C51.8403 52.7084 49.2702 50.1383 49.2702 46.9792C49.2702 43.8201 51.8403 41.25 54.9993 41.25C58.1584 41.25 60.7285 43.8201 60.7285 46.9792C60.7285 50.1383 58.1584 52.7084 54.9993 52.7084Z" fill="#0B093A"/>
<path d="M80.4929 88.8685C80.1961 89.0919 79.8959 89.312 79.5945 89.5274C79.0789 89.894 78.9586 90.609 79.3264 91.1258C79.5498 91.4398 79.9028 91.607 80.2603 91.607C80.4894 91.607 80.722 91.5372 80.9237 91.3939C81.2434 91.1671 81.5596 90.9344 81.8736 90.6973C82.3778 90.3168 82.4786 89.5984 82.097 89.0931C81.7155 88.5878 80.997 88.4847 80.4929 88.8685Z" fill="#0B093A"/>
<path d="M75.8295 91.9256C75.5076 92.1089 75.1833 92.2865 74.8544 92.4607C74.2953 92.7574 74.081 93.4507 74.3778 94.0098C74.584 94.3983 74.9805 94.6194 75.3918 94.6194C75.5729 94.6194 75.7562 94.577 75.9269 94.4865C76.2753 94.302 76.619 94.113 76.9616 93.9182C77.5116 93.6053 77.7041 92.9052 77.3913 92.3564C77.0774 91.8041 76.375 91.6116 75.8295 91.9256Z" fill="#0B093A"/>
<path d="M88.4257 81.0688C88.1977 81.3633 87.9651 81.6521 87.729 81.9374C87.3257 82.4267 87.3956 83.1485 87.8837 83.5507C88.098 83.726 88.3558 83.8131 88.6125 83.8131C88.9436 83.8131 89.2702 83.671 89.4971 83.3972C89.7469 83.0935 89.9932 82.7876 90.235 82.4771C90.6246 81.9763 90.534 81.2579 90.0345 80.8695C89.5349 80.4776 88.8141 80.5704 88.4257 81.0688Z" fill="#0B093A"/>
<path d="M84.7151 85.2282C84.4515 85.4894 84.1834 85.7461 83.9118 85.9993C83.4489 86.4302 83.4226 87.1555 83.8545 87.6184C84.0803 87.8613 84.3862 87.9828 84.6922 87.9828C84.9717 87.9828 85.2525 87.8808 85.4736 87.6745C85.7612 87.4064 86.0465 87.1348 86.3261 86.8587C86.7764 86.413 86.7799 85.6888 86.3364 85.2373C85.8895 84.7905 85.1654 84.7836 84.7151 85.2282Z" fill="#0B093A"/>
<path d="M93.1303 76.0501C92.5837 75.7293 91.8813 75.9126 91.5628 76.458C91.3749 76.7777 91.1824 77.0963 90.9853 77.4091C90.6496 77.9465 90.8123 78.6535 91.3474 78.9892C91.5364 79.1084 91.7473 79.1634 91.9547 79.1634C92.3362 79.1634 92.7086 78.9732 92.9275 78.626C93.136 78.2925 93.3389 77.9568 93.5382 77.6165C93.8591 77.0722 93.6769 76.3698 93.1303 76.0501Z" fill="#0B093A"/>
<path d="M17.5403 74.8538C17.2424 74.2935 16.5469 74.0793 15.9912 74.3772C15.432 74.6739 15.2177 75.3672 15.5145 75.9263C15.699 76.2747 15.888 76.6184 16.0828 76.961C16.2948 77.3323 16.681 77.5408 17.0797 77.5408C17.2722 77.5408 17.467 77.4927 17.6446 77.3907C18.1946 77.0779 18.3871 76.3778 18.0743 75.8289C17.891 75.5058 17.7134 75.1815 17.5403 74.8538Z" fill="#0B093A"/>
<path d="M28.0631 87.7284C27.5727 87.3251 26.8519 87.3961 26.4497 87.8831C26.0464 88.3724 26.1163 89.0943 26.6044 89.4965C26.9081 89.7462 27.214 89.9926 27.5245 90.2344C27.7342 90.3982 27.9817 90.4761 28.2269 90.4761C28.5684 90.4761 28.9064 90.3237 29.1321 90.0338C29.5206 89.5331 29.4312 88.8147 28.9316 88.4262C28.6371 88.1982 28.3484 87.9656 28.0631 87.7284Z" fill="#0B093A"/>
<path d="M20.4723 79.5954C20.1056 79.0797 19.3906 78.9606 18.8738 79.3272C18.3582 79.6939 18.2379 80.4089 18.6057 80.9257C18.8326 81.2454 19.0652 81.5616 19.3024 81.8756C19.5269 82.1746 19.8695 82.3305 20.2179 82.3305C20.4585 82.3305 20.7003 82.256 20.9077 82.099C21.4118 81.7186 21.5127 81.0002 21.1311 80.4948C20.9077 80.1969 20.6888 79.8979 20.4723 79.5954Z" fill="#0B093A"/>
<path d="M33.9498 93.1299C34.2694 92.5834 34.0873 91.8821 33.5418 91.5624C33.2222 91.3745 32.9036 91.182 32.5908 90.9849C32.0557 90.6492 31.3487 90.8119 31.0107 91.347C30.675 91.8844 30.8377 92.5914 31.3728 92.9271C31.7062 93.1357 32.0419 93.3385 32.3823 93.5379C32.5644 93.6456 32.7638 93.696 32.9609 93.696C33.3528 93.696 33.7366 93.4943 33.9498 93.1299Z" fill="#0B093A"/>
<path d="M24.0016 83.9105C23.5685 83.4453 22.8443 83.4224 22.3825 83.8532C21.9196 84.284 21.8933 85.0094 22.3253 85.4723C22.5934 85.7599 22.8649 86.0452 23.1411 86.3248C23.3657 86.5505 23.6613 86.6651 23.9569 86.6651C24.248 86.6651 24.539 86.5551 24.7624 86.3351C25.2128 85.8894 25.2162 85.1652 24.7727 84.7137C24.5126 84.4502 24.2548 84.1832 24.0016 83.9105Z" fill="#0B093A"/>
<path d="M34.0733 15.5146C33.725 15.6991 33.3812 15.8881 33.0386 16.0829C32.4886 16.3957 32.2961 17.0958 32.6089 17.6447C32.8209 18.0159 33.2071 18.2245 33.6058 18.2245C33.7983 18.2245 33.9931 18.1764 34.1707 18.0744C34.4927 17.8911 34.817 17.7134 35.1458 17.5393C35.705 17.2425 35.9192 16.5493 35.6225 15.9901C35.3257 15.4321 34.6279 15.2178 34.0733 15.5146Z" fill="#0B093A"/>
<path d="M29.0748 18.6061C28.7551 18.833 28.4388 19.0656 28.1249 19.3027C27.6207 19.6832 27.5199 20.4016 27.9014 20.9069C28.126 21.206 28.4686 21.3618 28.8169 21.3618C29.0576 21.3618 29.2993 21.2873 29.5067 21.1304C29.8035 20.9069 30.1037 20.6869 30.4051 20.4715C30.9207 20.1048 31.041 19.3898 30.6732 18.8731C30.3054 18.3563 29.5915 18.2406 29.0748 18.6061Z" fill="#0B093A"/>
<path d="M17.071 31.3729C16.8625 31.7064 16.6596 32.0421 16.4603 32.3824C16.1406 32.929 16.3228 33.6302 16.8682 33.9499C17.0504 34.0576 17.2497 34.108 17.4468 34.108C17.8399 34.108 18.2237 33.9052 18.4357 33.542C18.6236 33.2223 18.8161 32.9038 19.0132 32.591C19.3489 32.0536 19.1862 31.3466 18.6511 31.0108C18.116 30.6751 17.409 30.8367 17.071 31.3729Z" fill="#0B093A"/>
<path d="M24.4798 25.1018C24.7709 25.1018 25.0619 24.9918 25.2854 24.7718C25.5489 24.5105 25.817 24.2539 26.0886 24.0006C26.5515 23.5698 26.5779 22.8445 26.1459 22.3816C25.7139 21.9187 24.9886 21.8923 24.5268 22.3243C24.2392 22.5924 23.9539 22.864 23.6743 23.1401C23.224 23.5858 23.2206 24.31 23.664 24.7615C23.8897 24.9883 24.1842 25.1018 24.4798 25.1018Z" fill="#0B093A"/>
<path d="M20.5034 26.6039C20.2536 26.9076 20.0073 27.2135 19.7655 27.524C19.3759 28.0248 19.4664 28.7432 19.966 29.1316C20.1757 29.2955 20.4232 29.3734 20.6684 29.3734C21.0099 29.3734 21.3479 29.221 21.5736 28.9311C21.8017 28.6366 22.0343 28.3479 22.2703 28.0626C22.6736 27.5733 22.6037 26.8514 22.1156 26.4493C21.6275 26.0459 20.9068 26.117 20.5034 26.6039Z" fill="#0B093A"/>
<path d="M77.6176 16.461C77.071 16.1391 76.3698 16.3235 76.0501 16.869C75.7304 17.4144 75.9126 18.1168 76.458 18.4365C76.7777 18.6244 77.0963 18.8169 77.4091 19.014C77.5981 19.1331 77.809 19.1881 78.0164 19.1881C78.3979 19.1881 78.7703 18.9979 78.9892 18.6507C79.3249 18.1133 79.1622 17.4064 78.6271 17.0706C78.2937 16.8644 77.9579 16.6604 77.6176 16.461Z" fill="#0B093A"/>
<path d="M91.9261 34.171C92.1094 34.493 92.287 34.8173 92.4612 35.1461C92.6674 35.5346 93.0639 35.7557 93.4752 35.7557C93.6563 35.7557 93.8396 35.7133 94.0103 35.6228C94.5695 35.326 94.7838 34.6328 94.487 34.0736C94.3025 33.7253 94.1135 33.3816 93.9187 33.039C93.6047 32.4878 92.9012 32.2976 92.3569 32.6093C91.8046 32.9221 91.6121 33.6222 91.9261 34.171Z" fill="#0B093A"/>
<path d="M80.8685 19.9662C80.4801 20.4669 80.5695 21.1853 81.0691 21.5738C81.3635 21.8018 81.6523 22.0344 81.9376 22.2705C82.1519 22.4458 82.4097 22.5328 82.6664 22.5328C82.9975 22.5328 83.3241 22.3908 83.5509 22.1169C83.9543 21.6276 83.8844 20.9058 83.3963 20.5036C83.0926 20.2538 82.7867 20.0074 82.4761 19.7657C81.9766 19.3749 81.257 19.4689 80.8685 19.9662Z" fill="#0B093A"/>
<path d="M89.5271 30.4047C89.7505 30.7186 90.1034 30.8859 90.4609 30.8859C90.6901 30.8859 90.9227 30.816 91.1244 30.6728C91.64 30.3061 91.7603 29.5911 91.3925 29.0744C91.1656 28.7547 90.933 28.4384 90.6958 28.1245C90.3143 27.6192 89.597 27.516 89.0917 27.901C88.5875 28.2815 88.4867 28.9999 88.8682 29.5052C89.0917 29.8031 89.3105 30.1022 89.5271 30.4047Z" fill="#0B093A"/>
<path d="M85.2388 23.6638C84.7885 24.1095 84.785 24.8337 85.2285 25.2851C85.4897 25.5487 85.7464 25.8168 85.9996 26.0884C86.2253 26.3313 86.5313 26.4527 86.8372 26.4527C87.1168 26.4527 87.3975 26.3508 87.6187 26.1445C88.0816 25.7137 88.1079 24.9884 87.676 24.5254C87.4078 24.2378 87.1363 23.9525 86.8601 23.6729C86.4133 23.2272 85.6891 23.2203 85.2388 23.6638Z" fill="#0B093A"/>
<path d="M48.4597 14.5601C48.6832 14.7836 48.9765 14.8959 49.2698 14.8959C49.5632 14.8959 49.8565 14.7836 50.0799 14.5601L54.6633 9.97679C55.1113 9.52877 55.1113 8.80461 54.6633 8.35658C54.2152 7.90856 53.4911 7.90856 53.043 8.35658L49.2698 12.1298L47.7883 10.6483C47.3402 10.2002 46.6161 10.2002 46.168 10.6483C45.72 11.0963 45.72 11.8204 46.168 12.2685L48.4597 14.5601Z" fill="#0B093A"/>
<path d="M46.168 20.2893L48.4597 22.5809C48.6832 22.8044 48.9765 22.9167 49.2698 22.9167C49.5632 22.9167 49.8565 22.8044 50.0799 22.5809L54.6633 17.9976C55.1113 17.5496 55.1113 16.8254 54.6633 16.3774C54.2152 15.9294 53.4911 15.9294 53.043 16.3774L49.2698 20.1506L47.7883 18.6691C47.3402 18.221 46.6161 18.221 46.168 18.6691C45.72 19.1171 45.72 19.8413 46.168 20.2893Z" fill="#0B093A"/>
<path d="M57.2923 12.6042H66.459C67.0926 12.6042 67.6048 12.092 67.6048 11.4583C67.6048 10.8247 67.0926 10.3125 66.459 10.3125H57.2923C56.6587 10.3125 56.1465 10.8247 56.1465 11.4583C56.1465 12.092 56.6587 12.6042 57.2923 12.6042Z" fill="#0B093A"/>
<path d="M57.2923 21.7708H66.459C67.0926 21.7708 67.6048 21.2586 67.6048 20.625C67.6048 19.9913 67.0926 19.4791 66.459 19.4791H57.2923C56.6587 19.4791 56.1465 19.9913 56.1465 20.625C56.1465 21.2586 56.6587 21.7708 57.2923 21.7708Z" fill="#0B093A"/>
<path d="M46.168 28.3101L48.4597 30.6018C48.6832 30.8252 48.9765 30.9375 49.2698 30.9375C49.5632 30.9375 49.8565 30.8252 50.0799 30.6018L54.6633 26.0184C55.1113 25.5704 55.1113 24.8462 54.6633 24.3982C54.2152 23.9502 53.4911 23.9502 53.043 24.3982L49.2698 28.1714L47.7883 26.6899C47.3402 26.2419 46.6161 26.2419 46.168 26.6899C45.72 27.1379 45.72 27.8621 46.168 28.3101Z" fill="#0B093A"/>
<path d="M57.2923 29.7917H66.459C67.0926 29.7917 67.6048 29.2795 67.6048 28.6458C67.6048 28.0122 67.0926 27.5 66.459 27.5H57.2923C56.6587 27.5 56.1465 28.0122 56.1465 28.6458C56.1465 29.2795 56.6587 29.7917 57.2923 29.7917Z" fill="#0B093A"/>
<path d="M20.6253 55V45.8333C20.6253 45.1997 20.1131 44.6875 19.4795 44.6875C18.8458 44.6875 18.3336 45.1997 18.3336 45.8333V54.5256L14.086 58.7732C13.638 59.2212 13.638 59.9454 14.086 60.3934C14.3095 60.6169 14.6028 60.7292 14.8961 60.7292C15.1895 60.7292 15.4828 60.6169 15.7062 60.3934L20.2896 55.8101C20.505 55.5958 20.6253 55.3048 20.6253 55Z" fill="#0B093A"/>
<path d="M104.983 43.0684C103.203 41.1571 100.833 40.1041 98.305 40.1041C95.7773 40.1041 93.4066 41.1571 91.6271 43.0684L90.5202 44.2589L89.4134 43.0684C87.6339 41.1571 85.2631 40.1041 82.7354 40.1041C80.2077 40.1041 77.837 41.1571 76.0575 43.0695C72.439 46.9596 72.439 53.2904 76.0587 57.1805L89.6815 71.8219C89.898 72.0557 90.2028 72.1875 90.5202 72.1875C90.8376 72.1875 91.1424 72.0557 91.359 71.8231L104.983 57.1805C108.601 53.2904 108.601 46.9585 104.983 43.0684ZM103.305 55.6187L90.5202 69.3595L77.7362 55.6199C74.9174 52.5891 74.9174 47.6598 77.7362 44.6302C79.0768 43.1887 80.8528 42.3958 82.7354 42.3958C84.618 42.3958 86.3941 43.1887 87.7347 44.6302L89.6803 46.7213C90.1146 47.1865 90.9247 47.1865 91.359 46.7213L93.3046 44.6302C94.6452 43.1887 96.4213 42.3958 98.3039 42.3958C100.186 42.3958 101.963 43.1887 103.303 44.629C106.123 47.6598 106.123 52.5891 103.305 55.6187Z" fill="#0B093A"/>
<path d="M95.1481 57.656L90.8833 62.2393C90.4524 62.7034 90.4776 63.4276 90.9417 63.8595C91.164 64.0646 91.4436 64.1666 91.7232 64.1666C92.0303 64.1666 92.3362 64.044 92.5619 63.8023L96.8267 59.2189C97.2575 58.7549 97.2323 58.0307 96.7683 57.5987C96.3054 57.1702 95.5812 57.1954 95.1481 57.656Z" fill="#0B093A"/>
<path d="M98.8494 53.6812L97.7036 54.9118C97.2727 55.3747 97.298 56.1 97.762 56.532C97.9832 56.7371 98.2639 56.8391 98.5435 56.8391C98.8506 56.8391 99.1565 56.7165 99.3822 56.4747L100.528 55.2441C100.959 54.7812 100.934 54.0559 100.47 53.6239C100.006 53.1942 99.2825 53.2194 98.8494 53.6812Z" fill="#0B093A"/>
<path d="M40.1048 26.3541C40.7385 26.3541 41.2506 25.8419 41.2506 25.2083V24.0625C41.2506 23.4288 40.7385 22.9166 40.1048 22.9166C39.4712 22.9166 38.959 23.4288 38.959 24.0625V25.2083C38.959 25.8419 39.4712 26.3541 40.1048 26.3541Z" fill="#0B093A"/>
<path d="M73.334 35.5209V9.16669C73.334 8.8619 73.2137 8.57085 72.9983 8.35658L67.2691 2.62742C67.0548 2.412 66.7638 2.29169 66.459 2.29169H40.1048C39.4712 2.29169 38.959 2.80387 38.959 3.43752V19.4792C38.959 20.1128 39.4712 20.625 40.1048 20.625C40.7385 20.625 41.2507 20.1128 41.2507 19.4792V4.58335H65.9846L71.0423 9.64106V34.375H41.2507V29.7917C41.2507 29.158 40.7385 28.6459 40.1048 28.6459C39.4712 28.6459 38.959 29.158 38.959 29.7917V35.5209C38.959 36.1545 39.4712 36.6667 40.1048 36.6667H72.1882C72.8218 36.6667 73.334 36.1545 73.334 35.5209Z" fill="#0B093A"/>
<path d="M19.4798 65.3125C20.1126 65.3125 20.6257 64.7995 20.6257 64.1667C20.6257 63.5339 20.1126 63.0209 19.4798 63.0209C18.847 63.0209 18.334 63.5339 18.334 64.1667C18.334 64.7995 18.847 65.3125 19.4798 65.3125Z" fill="#0B093A"/>
<path d="M24.0619 65.3125C24.6947 65.3125 25.2077 64.7995 25.2077 64.1667C25.2077 63.5339 24.6947 63.0209 24.0619 63.0209C23.429 63.0209 22.916 63.5339 22.916 64.1667C22.916 64.7995 23.429 65.3125 24.0619 65.3125Z" fill="#0B093A"/>
<path d="M14.8958 65.3125C15.5287 65.3125 16.0417 64.7995 16.0417 64.1667C16.0417 63.5339 15.5287 63.0209 14.8958 63.0209C14.263 63.0209 13.75 63.5339 13.75 64.1667C13.75 64.7995 14.263 65.3125 14.8958 65.3125Z" fill="#0B093A"/>
<path d="M73.3327 99.6875C72.7002 99.6875 72.1868 99.1741 72.1868 98.5416V90.5208C72.1868 84.4777 67.9094 79.4188 62.225 78.1996C62.7257 77.4652 63.0202 76.5794 63.0202 75.625V72.1875C63.0202 71.5538 62.508 71.0416 61.8743 71.0416H48.1243C47.4907 71.0416 46.9785 71.5538 46.9785 72.1875V75.625C46.9785 76.5794 47.273 77.4652 47.7737 78.1996C42.0892 79.4188 37.8118 84.4777 37.8118 90.5208V98.5416C37.8118 99.1741 37.2985 99.6875 36.666 99.6875C34.7708 99.6875 33.2285 101.23 33.2285 103.125C33.2285 105.02 34.7708 106.562 36.666 106.562H50.416C51.0497 106.562 51.5618 106.05 51.5618 105.417C51.5618 104.783 51.0497 104.271 50.416 104.271H36.666C36.0335 104.271 35.5202 103.757 35.5202 103.125C35.5202 102.492 36.0335 101.979 36.666 101.979C38.5612 101.979 40.1035 100.437 40.1035 98.5416V90.5208C40.1035 84.834 44.7292 80.2083 50.416 80.2083H51.5618H58.4368H59.5827C65.2694 80.2083 69.8952 84.834 69.8952 90.5208V98.5416C69.8952 100.437 71.4375 101.979 73.3327 101.979C73.9652 101.979 74.4785 102.492 74.4785 103.125C74.4785 103.757 73.9652 104.271 73.3327 104.271H56.1452V101.979C58.6729 101.979 60.7285 99.9235 60.7285 97.3958C60.7285 94.8681 58.6729 92.8125 56.1452 92.8125H53.8535C52.5897 92.8125 51.5618 91.7846 51.5618 90.5208C51.5618 89.2569 52.5897 88.2291 53.8535 88.2291H56.1452C57.409 88.2291 58.4368 89.2569 58.4368 90.5208C58.4368 91.1544 58.949 91.6666 59.5827 91.6666C60.2163 91.6666 60.7285 91.1544 60.7285 90.5208C60.7285 87.9931 58.6729 85.9375 56.1452 85.9375V84.7916C56.1452 84.158 55.633 83.6458 54.9993 83.6458C54.3657 83.6458 53.8535 84.158 53.8535 84.7916V85.9375C51.3258 85.9375 49.2702 87.9931 49.2702 90.5208C49.2702 93.0485 51.3258 95.1041 53.8535 95.1041H56.1452C57.409 95.1041 58.4368 96.1319 58.4368 97.3958C58.4368 98.6596 57.409 99.6875 56.1452 99.6875H53.8535C52.5897 99.6875 51.5618 98.6596 51.5618 97.3958C51.5618 96.7621 51.0497 96.25 50.416 96.25C49.7824 96.25 49.2702 96.7621 49.2702 97.3958C49.2702 99.9235 51.3258 101.979 53.8535 101.979V105.417C53.8535 106.05 54.3657 106.562 54.9993 106.562H73.3327C75.2279 106.562 76.7702 105.02 76.7702 103.125C76.7702 101.23 75.2279 99.6875 73.3327 99.6875ZM60.7285 75.625C60.7285 76.8888 59.7007 77.9166 58.4368 77.9166H51.5618C50.298 77.9166 49.2702 76.8888 49.2702 75.625V73.3333H60.7285V75.625Z" fill="#0B093A"/>
</svg>
