<svg width="107" height="107" viewBox="0 0 107 107" fill="none" xmlns="http://www.w3.org/2000/svg">
<g clip-path="url(#clip0_225:1070)">
<path d="M106.93 60.1362C107 59.8255 106.983 59.5018 106.882 59.2C105.659 41.5309 91.0389 27.7822 73.3279 27.6464C67.4167 7.83183 46.5618 -3.43948 26.7472 2.47169C6.93233 8.38286 -4.33875 29.2378 1.5722 49.0524C4.68449 59.4849 12.1835 68.046 22.1153 72.5052C18.6026 74.3843 15.3394 76.6964 12.4017 79.3869L7.31395 84.0502C5.13566 86.0466 4.98809 89.4306 6.98449 91.6089C7.20762 91.8523 7.45283 92.0748 7.71698 92.273L13.452 96.5743C21.7074 102.74 31.7297 106.08 42.0329 106.101H47.1367C57.4387 106.079 67.4597 102.739 75.7139 96.5743L77.7326 95.0602C94.5123 92.7879 107.022 78.4511 107 61.5183C107 61.0511 106.948 60.5981 106.93 60.1362ZM97.5789 43.6854C100.807 48.0821 102.779 53.2735 103.285 58.7043L101.773 59.4604L93.0172 53.6237L95.8615 43.6854H97.5789ZM85.5131 33.8862C88.8851 35.3964 91.9537 37.5085 94.5687 40.1188H94.5169C93.7207 40.1195 93.0214 40.6478 92.8032 41.4135L89.4613 53.1083L83.7316 55.7511L74.9007 49.8645V42.8312L84.8408 35.8763C85.4732 35.4294 85.7449 34.6254 85.5131 33.8862ZM45.2321 42.3176C45.0408 42.4738 44.8841 42.6682 44.772 42.8882C44.7513 42.952 44.7339 43.0169 44.7203 43.0826L39.9732 38.3355L45.6387 32.67C47.1456 34.04 48.7612 35.2852 50.4696 36.3935H50.4661C48.4973 38.1585 46.741 40.1464 45.2321 42.3176ZM42.8853 46.289C40.863 50.2905 39.6618 54.656 39.3526 59.1287C37.7028 54.4594 35.1355 50.1672 31.8021 46.5048L37.448 40.8517L42.8853 46.289ZM47.0956 46.0429L48.5223 46.7562L51.4005 53.95L44.2281 61.1313L42.8514 60.443C43.0264 55.3615 44.4867 50.407 47.0956 46.0429ZM43.7859 64.8887C44.4724 65.2313 45.3014 65.0965 45.8438 64.5535L53.9292 56.4698L60.9429 59.2749L64.2687 70.9145C64.3011 71.0047 64.3419 71.0919 64.39 71.1748C58.1746 68.3327 51.4192 66.8637 44.5848 66.8682C44.1639 66.8682 43.7448 66.886 43.324 66.8967L43.3204 66.8878C43.1777 66.0889 43.0422 65.2828 42.9638 64.4768L43.7859 64.8887ZM62.209 55.9473L54.8726 53.012L51.5913 44.8088C51.429 44.4025 51.1232 44.0699 50.7318 43.8744L49.1268 43.0683C52.1774 39.0981 56.1599 35.9412 60.7218 33.8773C60.49 34.6162 60.7617 35.4205 61.3941 35.8674L71.3341 42.8312V49.8645L62.209 55.9473ZM73.1174 52.9585L81.5595 58.5991C81.5738 58.6365 81.5702 58.6757 81.5881 58.7132C81.6208 58.7749 81.6579 58.8347 81.6986 58.8915L78.906 68.6515H67.3289L64.4899 58.7132L73.1174 52.9585ZM81.2368 32.3401V32.349L81.7004 33.7239L73.1174 39.7247L64.5345 33.715L64.9981 32.3401C70.3047 30.8231 75.9301 30.8231 81.2368 32.3401ZM69.6614 27.8141C63.7946 28.4208 58.1902 30.559 53.4103 34.0146C51.5414 32.8964 49.7846 31.6011 48.1638 30.1466L62.6281 15.6877C65.7932 19.1947 68.1891 23.3253 69.6614 27.8141ZM60.0851 13.1786L45.6405 27.6233C40.5911 22.0248 37.5597 14.8981 37.029 7.37753L36.8221 4.4993C45.3975 4.33145 53.7154 7.43482 60.0851 13.1786ZM33.2662 4.75966L33.4713 7.63076C34.06 16.0089 37.4572 23.9434 43.1135 30.152L37.4516 35.8139L14.818 13.1786C19.9559 8.54314 26.3976 5.60338 33.2662 4.75966ZM12.2965 15.7002L34.93 38.3355L29.2823 43.9832C23.068 38.329 15.1283 34.9361 6.74687 34.3534L3.87398 34.1483C4.71882 27.2795 7.65969 20.8378 12.2965 15.7002ZM3.61541 37.706L6.49364 37.9111C14.0162 38.4367 21.1472 41.4629 26.7518 46.5083L12.2911 60.9708C6.54892 54.5996 3.44688 46.2816 3.61541 37.706ZM14.7931 63.5174L29.2823 49.0352C33.8777 54.1555 36.7971 60.5584 37.6495 67.3853C33.8447 67.9428 30.1218 68.9606 26.5628 70.4169C22.2134 68.9366 18.2094 66.5895 14.7931 63.5174ZM79.5605 89.1986C79.486 89.2797 79.4042 89.3537 79.3162 89.4199L73.5722 93.723C65.9363 99.4249 56.6663 102.515 47.1367 102.534H42.0329C32.5032 102.515 23.2332 99.4249 15.5973 93.723L9.8605 89.4199C9.0725 88.829 8.91267 87.7113 9.50361 86.9233C9.5696 86.8353 9.64382 86.7534 9.72496 86.679L14.8038 82.0157C18.4343 78.7068 22.5934 76.0294 27.1085 74.0943C27.3793 74.0437 27.6346 73.9309 27.8539 73.7644C43.6441 67.2427 61.7826 70.4604 74.3657 82.0157L79.4517 86.679C80.1775 87.3446 80.2263 88.4725 79.5605 89.1986ZM76.7678 79.3869C73.6774 76.5568 70.2272 74.1465 66.5068 72.2181H79.5123L83.4356 76.1413L80.2221 82.5612L76.7678 79.3869ZM83.1164 90.1241C83.8373 88.5735 83.7307 86.7644 82.8328 85.3092L86.7026 77.5679H96.9815L97.775 79.1551C94.1418 84.2403 89.02 88.0731 83.1164 90.1241ZM99.9685 75.576L99.6885 74.9875C99.3849 74.3801 98.7627 73.9976 98.0835 74.0014H86.3388L82.2533 69.9158L85.3972 58.9111L90.7917 56.4234L100.66 63.002C101.192 63.356 101.872 63.3988 102.444 63.1143L103.376 62.6471C103.22 67.1573 102.056 71.575 99.9685 75.576Z" fill="#0B093A"/>
<path d="M60.6347 84.701H58.8514V82.9177C58.8514 81.9329 58.0529 81.1344 57.0681 81.1344C56.0833 81.1344 55.2848 81.9329 55.2848 82.9177V84.701H51.7182V82.9177C51.7182 81.9329 50.9198 81.1344 49.9349 81.1344C48.9501 81.1344 48.1516 81.9329 48.1516 82.9177V84.701H44.5851V82.9177C44.5851 81.9329 43.7866 81.1344 42.8018 81.1344C41.8169 81.1344 41.0185 81.9329 41.0185 82.9177V84.701H37.4519V82.9177C37.4519 81.9329 36.6534 81.1344 35.6686 81.1344C34.6838 81.1344 33.8853 81.9329 33.8853 82.9177V84.701H30.3187V82.9177C30.3187 81.9329 29.5202 81.1344 28.5354 81.1344C27.5506 81.1344 26.7521 81.9329 26.7521 82.9177V84.701H24.9688C23.984 84.701 23.1855 85.4995 23.1855 86.4843C23.1855 87.4691 23.984 88.2676 24.9688 88.2676H26.7521V90.0509C26.7521 91.0357 27.5506 91.8342 28.5354 91.8342C29.5202 91.8342 30.3187 91.0357 30.3187 90.0509V88.2676H33.8853V90.0509C33.8853 91.0357 34.6838 91.8342 35.6686 91.8342C36.6534 91.8342 37.4519 91.0357 37.4519 90.0509V88.2676H41.0185V90.0509C41.0185 91.0357 41.8169 91.8342 42.8018 91.8342C43.7866 91.8342 44.5851 91.0357 44.5851 90.0509V88.2676H48.1516V90.0509C48.1516 91.0357 48.9501 91.8342 49.9349 91.8342C50.9198 91.8342 51.7182 91.0357 51.7182 90.0509V88.2676H55.2848V90.0509C55.2848 91.0357 56.0833 91.8342 57.0681 91.8342C58.0529 91.8342 58.8514 91.0357 58.8514 90.0509V88.2676H60.6347C61.6195 88.2676 62.418 87.4691 62.418 86.4843C62.418 85.4995 61.6195 84.701 60.6347 84.701Z" fill="#0B093A"/>
</g>
<defs>
<clipPath id="clip0_225:1070">
<rect width="107" height="107" fill="white"/>
</clipPath>
</defs>
</svg>
