<svg width="110" height="110" viewBox="0 0 110 110" fill="none" xmlns="http://www.w3.org/2000/svg">
<path d="M55 43.1836C52.6629 43.1836 50.3784 43.8766 48.4352 45.175C46.492 46.4734 44.9774 48.3189 44.0831 50.4781C43.1887 52.6372 42.9547 55.0131 43.4106 57.3053C43.8666 59.5974 44.992 61.7029 46.6445 63.3555C48.2971 65.008 50.4026 66.1334 52.6947 66.5894C54.9869 67.0453 57.3628 66.8113 59.5219 65.9169C61.6811 65.0226 63.5266 63.508 64.825 61.5648C66.1234 59.6216 66.8164 57.3371 66.8164 55C66.813 51.8671 65.567 48.8636 63.3517 46.6483C61.1364 44.433 58.1329 43.187 55 43.1836ZM55 63.8086C53.2578 63.8086 51.5548 63.292 50.1062 62.3241C48.6576 61.3562 47.5286 59.9805 46.8619 58.3709C46.1952 56.7613 46.0208 54.9902 46.3607 53.2815C46.7005 51.5728 47.5395 50.0033 48.7714 48.7714C50.0033 47.5395 51.5728 46.7005 53.2815 46.3607C54.9902 46.0208 56.7613 46.1952 58.3709 46.8619C59.9805 47.5286 61.3562 48.6576 62.3241 50.1062C63.292 51.5548 63.8086 53.2578 63.8086 55C63.8061 57.3354 62.8772 59.5745 61.2259 61.2259C59.5745 62.8772 57.3354 63.8061 55 63.8086Z" fill="#0B093A"/>
<path d="M60.1554 53.4961C59.7566 53.4961 59.3741 53.6545 59.092 53.9366C58.81 54.2186 58.6515 54.6011 58.6515 55C58.6493 55.6395 58.4801 56.2674 58.1607 56.8215C57.8413 57.3755 57.3828 57.8366 56.8305 58.1591C56.6599 58.2585 56.5105 58.3907 56.3909 58.5479C56.2714 58.7051 56.1839 58.8843 56.1336 59.0753C56.0833 59.2663 56.0711 59.4653 56.0977 59.6611C56.1243 59.8568 56.1892 60.0453 56.2887 60.216C56.3882 60.3866 56.5203 60.536 56.6775 60.6556C56.8347 60.7751 57.0139 60.8626 57.2049 60.9129C57.3959 60.9632 57.595 60.9754 57.7907 60.9488C57.9864 60.9222 58.175 60.8573 58.3456 60.7578C59.3515 60.1698 60.1864 59.3292 60.7676 58.3193C61.3488 57.3094 61.6562 56.1652 61.6593 55C61.6593 54.6011 61.5009 54.2186 61.2189 53.9366C60.9368 53.6545 60.5543 53.4961 60.1554 53.4961Z" fill="#0B093A"/>
<path d="M93.8695 51.4852C94.4177 51.6292 94.9819 51.7031 95.5487 51.7052C96.8654 51.7044 98.1524 51.3134 99.247 50.5816C100.342 49.8498 101.195 48.81 101.699 47.5935C102.203 46.3771 102.335 45.0386 102.078 43.7471C101.822 42.4556 101.189 41.269 100.258 40.3373C100.149 40.2291 100.033 40.1311 99.9144 40.0305C101.032 35.9795 100.774 32.4509 99.0954 29.541C95.486 23.2848 86.0079 21.2352 73.003 23.8245C68.7294 11.2673 62.2119 4.08203 55 4.08203C47.7881 4.08203 41.2715 11.2664 36.9935 23.8253C23.986 21.2343 14.5105 23.2848 10.902 29.5402C9.27522 32.3503 8.9899 35.8815 10.0272 39.8011C8.80283 40.7596 7.95246 42.1163 7.62346 43.6361C7.29446 45.1558 7.50756 46.7427 8.22582 48.1218C8.94409 49.5009 10.1223 50.5852 11.5561 51.1868C12.9899 51.7883 14.5891 51.8693 16.0763 51.4155C16.9683 52.6023 17.9455 53.8029 18.9982 55.0052C10.2592 64.9773 7.29522 74.2096 10.9012 80.459C13.4922 84.9509 19.1004 87.2807 26.8709 87.2807C30.2725 87.239 33.662 86.8672 36.9918 86.1704C41.2689 98.731 47.7872 105.918 55 105.918C58.2587 105.918 61.4728 104.39 64.3612 101.515C65.7823 102.137 67.3762 102.244 68.8677 101.816C70.3591 101.389 71.6543 100.453 72.5294 99.1721C73.4045 97.8909 73.8047 96.3443 73.6606 94.7995C73.5166 93.2547 72.8375 91.8086 71.7406 90.7113C71.6323 90.6022 71.5163 90.5034 71.402 90.4037C71.9649 89.0725 72.5037 87.6537 73.0125 86.1704C76.3407 86.8676 79.7288 87.2395 83.1291 87.2807C90.8987 87.2807 96.5078 84.9501 99.0988 80.459C102.708 74.2096 99.7408 64.9773 91.0035 55.006C92.0176 53.8484 92.9749 52.6711 93.8695 51.4852ZM98.1303 47.63C97.4448 48.3135 96.5163 48.6974 95.5483 48.6974C94.5803 48.6974 93.6518 48.3135 92.9663 47.63C92.4561 47.1193 92.1087 46.4688 91.968 45.7608C91.8274 45.0527 91.8999 44.3188 92.1763 43.6519C92.4527 42.9851 92.9206 42.4151 93.5209 42.0141C94.1211 41.6131 94.8268 41.399 95.5487 41.399C96.2706 41.399 96.9763 41.6131 97.5766 42.0141C98.1769 42.4151 98.6448 42.9851 98.9212 43.6519C99.1976 44.3188 99.2701 45.0527 99.1294 45.7608C98.9888 46.4688 98.6414 47.1193 98.1312 47.63H98.1303ZM96.4932 31.0441C97.6697 33.0868 97.8966 35.6262 97.1884 38.6066C95.7762 38.2474 94.2851 38.3617 92.944 38.9318C91.6029 39.5019 90.486 40.4964 89.7647 41.7626C89.0434 43.0287 88.7576 44.4966 88.9511 45.941C89.1446 47.3853 89.8068 48.7262 90.8359 49.7578C90.9442 49.867 91.0602 49.9649 91.1745 50.0655C90.4767 50.9741 89.7399 51.8759 88.9642 52.7708C85.2779 48.943 81.263 45.446 76.9656 42.3199C76.4043 37.0372 75.3865 31.813 73.9234 26.7059C85.2569 24.5145 93.6383 26.0949 96.4932 31.0432V31.0441ZM70.9749 82.6564C66.7909 81.6355 62.6894 80.3023 58.7047 78.668C61.27 77.428 63.8249 76.0805 66.3317 74.6333C68.8583 73.1723 71.3032 71.6323 73.6364 70.0382C73.0659 74.3049 72.1762 78.5228 70.9749 82.6564ZM39.0251 82.6564C37.8228 78.5229 36.9323 74.305 36.361 70.0382C38.7002 71.6323 41.1443 73.1741 43.67 74.6333C46.1742 76.0805 48.7265 77.4297 51.2961 78.668C47.3112 80.3023 43.2093 81.6355 39.0251 82.6564ZM39.0251 27.3436C43.2091 28.3644 47.3106 29.6976 51.2952 31.332C48.7291 32.572 46.1751 33.9195 43.6683 35.371C41.1417 36.832 38.6968 38.372 36.3593 39.9661C36.9308 35.6978 37.8219 31.4785 39.0251 27.3436ZM32.6562 63.623C29.2448 60.996 26.0381 58.1134 23.0639 55C26.0383 51.8869 29.245 49.0042 32.6562 46.377C32.444 49.213 32.3314 52.103 32.3314 55C32.3314 57.897 32.4422 60.7836 32.6562 63.623ZM45.1747 72.0277C41.9194 70.1482 38.8042 68.1304 35.8875 66.0318C35.5283 62.4302 35.3392 58.7271 35.3392 55C35.3392 51.2729 35.5283 47.5707 35.8875 43.9682C38.8016 41.8713 41.9177 39.8527 45.1747 37.9723C48.3974 36.1101 51.7008 34.4171 55.0008 32.9209C58.3034 34.418 61.606 36.1109 64.8287 37.9723C68.084 39.8518 71.1992 41.8696 74.1159 43.9682C74.4751 47.5698 74.6642 51.2729 74.6642 55C74.6642 58.7271 74.4751 62.4293 74.1159 66.0318C71.2018 68.1287 68.0857 70.1473 64.8287 72.0277C61.606 73.8899 58.3026 75.5829 55.0026 77.0791C51.6983 75.582 48.3957 73.8891 45.173 72.0277H45.1747ZM70.9766 27.3402C72.1789 31.4737 73.0694 35.6916 73.6407 39.9584C71.3015 38.3642 68.8574 36.8225 66.336 35.3633C63.8258 33.9195 61.2734 32.5703 58.7039 31.332C62.6888 29.6977 66.7906 28.3645 70.9749 27.3436L70.9766 27.3402ZM77.3437 46.377C80.7552 49.004 83.9619 51.8866 86.9361 55C83.9616 58.1131 80.755 60.9957 77.3437 63.623C77.556 60.787 77.6686 57.897 77.6686 55C77.6686 52.103 77.5577 49.2164 77.3437 46.377ZM55 7.08984C60.7045 7.08984 66.269 13.5601 70.0519 24.4707C64.8952 25.7526 59.8588 27.4778 54.9991 29.627C50.1401 27.4776 45.1043 25.7524 39.948 24.4707C43.7319 13.5592 49.2954 7.08984 55 7.08984ZM11.5405 47.63C10.9411 47.0324 10.5676 46.2455 10.4835 45.4033C10.3994 44.5611 10.6099 43.7158 11.0793 43.0115C11.5487 42.3072 12.2478 41.7875 13.0575 41.5409C13.8672 41.2944 14.7373 41.3363 15.5195 41.6595C16.3018 41.9827 16.9477 42.5672 17.3472 43.3134C17.7467 44.0595 17.8751 44.9211 17.7105 45.7513C17.5458 46.5815 17.0984 47.3289 16.4443 47.8662C15.7903 48.4034 14.9702 48.6971 14.1238 48.6973C13.6439 48.6993 13.1683 48.606 12.7247 48.4228C12.2811 48.2396 11.8783 47.9701 11.5397 47.63H11.5405ZM18.8323 40.3373C18.0541 39.5605 17.0957 38.9884 16.0425 38.6722C14.9894 38.3559 13.8744 38.3053 12.7969 38.5249C12.1026 35.5807 12.3346 33.0679 13.5059 31.0484C16.3616 26.0975 24.7431 24.5171 36.0765 26.7094C34.6135 31.8167 33.5953 37.0412 33.0335 42.3242C28.736 45.447 24.7207 48.9409 21.034 52.7656C20.197 51.7997 19.415 50.8395 18.688 49.885C18.7352 49.8403 18.7859 49.7991 18.8323 49.7535C20.0798 48.5037 20.7805 46.81 20.7805 45.0441C20.7805 43.2783 20.0798 41.5846 18.8323 40.3348V40.3373ZM13.5042 78.9551C10.6562 74.012 13.4767 65.9605 21.0383 57.2344C24.7239 61.0603 28.738 64.5556 33.0344 67.6801C33.5956 72.9628 34.6135 78.187 36.0765 83.2941C24.7422 85.4837 16.3608 83.9042 13.5059 78.9551H13.5042ZM69.6137 98.0031C69.016 98.6027 68.2288 98.9765 67.3864 99.0607C66.544 99.1449 65.6985 98.9343 64.994 98.4648C64.2895 97.9953 63.7696 97.296 63.5229 96.4862C63.2763 95.6763 63.3182 94.8059 63.6415 94.0235C63.9648 93.241 64.5495 92.5949 65.2958 92.1953C66.0422 91.7957 66.904 91.6673 67.7345 91.832C68.5649 91.9967 69.3125 92.4444 69.8498 93.0986C70.3871 93.7529 70.6809 94.5732 70.681 95.4198C70.6813 96.3883 70.2974 97.3173 69.6137 98.0031ZM67.0355 88.7623C65.7681 88.7622 64.5269 89.1239 63.4579 89.8049C62.389 90.4859 61.5366 91.4579 61.001 92.6067C60.4654 93.7554 60.2689 95.0332 60.4345 96.2898C60.6002 97.5464 61.1211 98.7296 61.936 99.7004C59.7016 101.829 57.3744 102.91 55.0043 102.91C49.2997 102.91 43.7353 96.4399 39.9523 85.5293C45.1091 84.2474 50.1454 82.5222 55.0051 80.373C59.8653 82.5226 64.9022 84.2477 70.0597 85.5293C69.6386 86.7367 69.2003 87.8926 68.7414 88.9883C68.1835 88.8393 67.6087 88.7634 67.0312 88.7623H67.0355ZM96.4983 78.9551C93.6426 83.9051 85.2612 85.4863 73.9277 83.2941C75.3908 78.1867 76.409 72.9622 76.9708 67.6792C81.2655 64.555 85.2778 61.0599 88.9616 57.2344C96.5233 65.9605 99.3437 74.012 96.494 78.9551H96.4983Z" fill="#0B093A"/>
</svg>
