<svg width="26" height="26" viewBox="0 0 26 26" fill="none" xmlns="http://www.w3.org/2000/svg">
    <g clip-path="url(#clip0_239:1340)">
        <path
            d="M22.925 8.10608C22.9406 8.32384 22.9406 8.54166 22.9406 8.75942C22.9406 15.4016 17.8851 23.0548 8.64518 23.0548C5.79852 23.0548 3.15412 22.2304 0.929688 20.7993C1.33414 20.846 1.72299 20.8615 2.14301 20.8615C4.49184 20.8615 6.65407 20.0682 8.38073 18.7149C6.17186 18.6682 4.32076 17.2216 3.68297 15.2305C3.99411 15.2771 4.30519 15.3082 4.63189 15.3082C5.08298 15.3082 5.53412 15.246 5.95409 15.1372C3.6519 14.6705 1.92519 12.6483 1.92519 10.2061V10.1439C2.59405 10.5172 3.37189 10.7505 4.19626 10.7816C2.84294 9.87937 1.95632 8.33941 1.95632 6.59719C1.95632 5.66388 2.20516 4.80833 2.64074 4.06167C5.11406 7.11053 8.83182 9.10159 13.0006 9.3194C12.9229 8.94607 12.8762 8.55722 12.8762 8.16833C12.8762 5.39943 15.1162 3.14392 17.9006 3.14392C19.3472 3.14392 20.6539 3.75058 21.5717 4.73057C22.7072 4.51281 23.7961 4.09279 24.7605 3.51725C24.3872 4.68394 23.5939 5.66393 22.5517 6.2861C23.5628 6.17727 24.5428 5.89721 25.445 5.50836C24.7606 6.50387 23.905 7.39049 22.925 8.10608Z"
            fill="#F8F8F8" />
    </g>
    <defs>
        <clipPath id="clip0_239:1340">
            <rect width="24.5154" height="24.5154" fill="white" transform="translate(0.929688 0.841675)" />
        </clipPath>
    </defs>
</svg>